<svg width="500" height="500" viewBox="0 0 500 500" fill="none" xmlns="http://www.w3.org/2000/svg">
<mask id="mask0_4_16" style="mask-type:luminance" maskUnits="userSpaceOnUse" x="120" y="138" width="260" height="225">
<path d="M279.18 250.57H337.02L294.977 141.4C294.19 139.35 292.22 138 290.027 138H205.057L249.72 250.57H209.903H162.5L161.817 252.363L161.663 252.37L120 362.177H163.053C189.637 362.177 213.48 345.82 223.05 321.017L239.287 278.933C239.583 278.1 239.897 277.273 240.243 276.463C242.97 270.06 247.227 264.46 252.547 260.12C252.787 259.923 253.037 259.74 253.283 259.55C257.367 256.363 262.04 253.9 267.117 252.37C270.927 251.22 274.96 250.59 279.133 250.57C279.15 250.57 279.163 250.57 279.18 250.57Z" fill="white"/>
<path d="M358.58 306.553H270.303L276.19 321.47C285.88 346.033 309.603 362.177 336.01 362.177H380L358.58 306.553Z" fill="white"/>
</mask>
<g mask="url(#mask0_4_16)">
<path d="M120 362.207V362.073H120.033V361.973H120.067V361.907H120.1V361.807H120.133V361.707H120.167V361.64H120.2V361.54H120.233V361.473H120.267V361.373H120.3V361.273H120.333V361.207H120.367V361.107H120.4V361.007H120.433V360.94H120.467V360.84H120.5V360.74H120.533V360.673H120.567V360.573H120.6V360.507H120.633V360.407H120.667V360.307H120.7V360.24H120.733V360.14H120.767V360.04H120.8V359.973H120.833V359.873H120.867V359.773H120.9V359.707H120.933V359.607H120.967V359.54H121V359.44H121.033V359.34H121.067V359.273H121.1V359.173H121.133V359.073H121.167V359.007H121.2V358.907H121.233V358.807H121.267V358.74H121.3V358.64H121.333V358.573H121.367V358.473H121.4V358.373H121.433V358.307H121.467V358.207H121.5V358.107H121.533V358.04H121.567V357.94H121.6V357.84H121.633V357.773H121.667V357.673H121.7V357.607H121.733V357.507H121.767V357.407H121.8V357.34H121.833V357.24H121.867V357.14H121.9V357.073H121.933V356.973H121.967V356.873H122V356.807H122.033V356.707H122.067V356.64H122.1V356.54H122.133V356.44H122.167V356.373H122.2V356.273H122.233V356.173H122.267V356.107H122.3V356.007H122.333V355.907H122.367V355.84H122.4V355.74H122.433V355.673H122.467V355.573H122.5V355.473H122.533V355.407H122.567V355.307H122.6V355.207H122.633V355.14H122.667V355.04H122.7V354.94H122.733V354.873H122.767V354.773H122.8V354.707H122.833V354.607H122.867V354.507H122.9V354.44H122.933V354.34H122.967V354.24H123V354.173H123.033V354.073H123.067V353.973H123.1V353.907H123.133V353.807H123.167V353.74H123.2V353.64H123.233V353.54H123.267V353.473H123.3V353.373H123.333V353.273H123.367V353.207H123.4V353.107H123.433V353.04H123.467V352.94H123.5V352.84H123.533V352.773H123.567V352.673H123.6V352.573H123.633V352.507H123.667V352.407H123.7V352.307H123.733V352.24H123.767V352.14H123.8V352.073H123.833V351.973H123.867V351.873H123.9V351.807H123.933V351.707H123.967V351.607H124V351.54H124.033V351.44H124.067V351.34H124.1V351.273H124.133V351.173H124.167V351.107H124.2V351.007H124.233V350.907H124.267V350.84H124.3V350.74H124.333V350.64H124.367V350.573H124.4V350.473H124.433V350.373H124.467V350.307H124.5V350.207H124.533V350.14H124.567V350.04H124.6V349.94H124.633V349.873H124.667V349.773H124.7V349.673H124.733V349.607H124.767V349.507H124.8V349.407H124.833V349.34H124.867V349.24H124.9V349.173H124.933V349.073H124.967V348.973H125V348.907H125.033V348.807H125.067V348.707H125.1V348.64H125.133V348.54H125.167V348.44H125.2V348.373H125.233V348.273H125.267V348.207H125.3V348.107H125.333V348.007H125.367V347.94H125.4V347.84H125.433V347.74H125.467V347.673H125.5V347.573H125.533V347.473H125.567V347.407H125.6V347.307H125.633V347.24H125.667V347.14H125.7V347.04H125.733V346.973H125.767V346.873H125.8V346.773H125.833V346.707H125.867V346.607H125.9V346.507H125.933V346.44H125.967V346.34H126V346.273H126.033V346.173H126.067V346.073H126.1V346.007H126.133V345.907H126.167V345.807H126.2V345.74H126.233V345.64H126.267V345.54H126.3V345.473H126.333V345.373H126.367V345.307H126.4V345.207H126.433V345.107H126.467V345.04H126.5V344.94H126.533V344.84H126.567V344.773H126.6V344.673H126.633V344.573H126.667V344.507H126.7V344.407H126.733V344.34H126.767V344.24H126.8V344.14H126.833V344.073H126.867V343.973H126.9V343.873H126.933V343.807H126.967V343.707H127V343.607H127.033V343.54H127.067V343.44H127.1V343.373H127.133V343.273H127.167V343.173H127.2V343.107H127.233V343.007H127.267V342.907H127.3V342.84H127.333V342.74H127.367V342.673H127.4V342.573H127.433V342.473H127.467V342.407H127.5V342.307H127.533V342.207H127.567V342.14H127.6V342.04H127.633V341.94H127.667V341.873H127.7V341.773H127.733V341.707H127.767V341.607H127.8V341.507H127.833V341.44H127.867V341.34H127.9V341.24H127.933V341.173H127.967V341.073H128V340.973H128.033V340.907H128.067V340.807H128.1V340.74H128.133V340.64H128.167V340.54H128.2V340.473H128.233V340.373H128.267V340.273H128.3V340.207H128.333V340.107H128.367V340.007H128.4V339.94H128.433V339.84H128.467V339.773H128.5V339.673H128.533V339.573H128.567V339.507H128.6V339.407H128.633V339.307H128.667V339.24H128.7V339.14H128.733V339.04H128.767V338.973H128.8V338.873H128.833V338.807H128.867V338.707H128.9V338.607H128.933V338.54H128.967V338.44H129V338.34H129.033V338.273H129.067V338.173H129.1V338.073H129.133V338.007H129.167V337.907H129.2V337.84H129.233V337.74H129.267V337.64H129.3V337.573H129.333V337.473H129.367V337.373H129.4V337.307H129.433V337.207H129.467V337.107H129.5V337.04H129.533V336.94H129.567V336.873H129.6V336.773H129.633V336.673H129.667V336.607H129.7V336.507H129.733V336.407H129.767V336.34H129.8V336.24H129.833V336.14H129.867V336.073H129.9V335.973H129.933V335.907H129.967V335.807H130V335.707H130.033V335.64H130.067V335.54H130.1V335.44H130.133V335.373H130.167V335.273H130.2V335.173H130.233V335.107H130.267V335.007H130.3V334.94H130.333V334.84H130.367V334.74H130.4V334.673H130.433V334.573H130.467V334.473H130.5V334.407H130.533V334.307H130.567V334.207H130.6V334.14H130.633V334.04H130.667V333.973H130.7V333.873H130.733V333.773H130.767V333.707H130.8V333.607H130.833V333.507H130.867V333.44H130.9V333.34H130.933V333.24H130.967V333.173H131V333.073H131.033V333.007H131.067V332.907H131.1V332.807H131.133V332.74H131.167V332.64H131.2V332.54H131.233V332.473H131.267V332.373H131.3V332.307H131.333V332.207H131.367V332.107H131.4V332.04H131.433V331.94H131.467V331.84H131.5V331.773H131.533V331.673H131.567V331.573H131.6V331.507H131.633V331.407H131.667V331.34H131.7V331.24H131.733V331.14H131.767V331.073H131.8V330.973H131.833V330.873H131.867V330.807H131.9V330.707H131.933V330.607H131.967V330.54H132V330.44H132.033V330.373H132.067V330.273H132.1V330.173H132.133V330.107H132.167V330.007H132.2V329.907H132.233V329.84H132.267V329.74H132.3V329.64H132.333V329.573H132.367V329.473H132.4V329.407H132.433V329.307H132.467V329.207H132.5V329.14H132.533V329.04H132.567V328.94H132.6V328.873H132.633V328.773H132.667V328.673H132.7V328.607H132.733V328.507H132.767V328.44H132.8V328.34H132.833V328.24H132.867V328.173H132.9V328.073H132.933V327.973H132.967V327.907H133V327.807H133.033V327.707H133.067V327.64H133.1V327.54H133.133V327.473H133.167V327.373H133.2V327.273H133.233V327.207H133.267V327.107H133.3V327.007H133.333V326.94H133.367V326.84H133.4V326.74H133.433V326.673H133.467V326.573H133.5V326.507H133.533V326.407H133.567V326.307H133.6V326.24H133.633V326.14H133.667V326.04H133.7V325.973H133.733V325.873H133.767V325.773H133.8V325.707H133.833V325.607H133.867V325.54H133.9V325.44H133.933V325.34H133.967V325.273H134V325.173H134.033V325.073H134.067V325.007H134.1V324.907H134.133V324.807H134.167V324.74H134.2V324.64H134.233V324.573H134.267V324.473H134.3V324.373H134.333V324.307H134.367V324.207H134.4V324.107H134.433V324.04H134.467V323.94H134.5V323.84H134.533V323.773H134.567V323.673H134.6V323.607H134.633V323.507H134.667V323.407H134.7V323.34H134.733V323.24H134.767V323.14H134.8V323.073H134.833V322.973H134.867V322.907H134.9V322.807H134.933V322.707H134.967V322.64H135V322.54H135.033V322.44H135.067V322.373H135.1V322.273H135.133V322.173H135.167V322.107H135.2V322.007H135.233V321.94H135.267V321.84H135.3V321.74H135.333V321.673H135.367V321.573H135.4V321.473H135.433V321.407H135.467V321.307H135.5V321.207H135.533V321.14H135.567V321.04H135.6V320.973H135.633V320.873H135.667V320.773H135.7V320.707H135.733V320.607H135.767V320.507H135.8V320.44H135.833V320.34H135.867V320.24H135.9V320.173H135.933V320.073H135.967V320.007H136V319.907H136.033V319.807H136.067V319.74H136.1V319.64H136.133V319.54H136.167V319.473H136.2V319.373H136.233V319.273H136.267V319.207H136.3V319.107H136.333V319.04H136.367V318.94H136.4V318.84H136.433V318.773H136.467V318.673H136.5V318.573H136.533V318.507H136.567V318.407H136.6V318.307H136.633V318.24H136.667V318.14H136.7V318.073H136.733V317.973H136.767V317.873H136.8V317.807H136.833V317.707H136.867V317.607H136.9V317.54H136.933V317.44H136.967V317.34H137V317.273H137.033V317.173H137.067V317.107H137.1V317.007H137.133V316.907H137.167V316.84H137.2V316.74H137.233V316.64H137.267V316.573H137.3V316.473H137.333V316.373H137.367V316.307H137.4V316.207H137.433V316.14H137.467V316.04H137.5V315.94H137.533V315.873H137.567V315.773H137.6V315.673H137.633V315.607H137.667V315.507H137.7V315.407H137.733V315.34H137.767V315.24H137.8V315.173H137.833V315.073H137.867V314.973H137.9V314.907H137.933V314.807H137.967V314.707H138V314.64H138.033V314.54H138.067V314.44H138.1V314.373H138.133V314.273H138.167V314.207H138.2V314.107H138.233V314.007H138.267V313.94H138.3V313.84H138.333V313.74H138.367V313.673H138.4V313.573H138.433V313.473H138.467V313.407H138.5V313.307H138.533V313.24H138.567V313.14H138.6V313.04H138.633V312.973H138.667V312.873H138.7V312.773H138.733V312.707H138.767V312.607H138.8V312.54H138.833V312.44H138.867V312.34H138.9V312.273H138.933V312.173H138.967V312.073H139V312.007H139.033V311.907H139.067V311.807H139.1V311.74H139.133V311.64H139.167V311.573H139.2V311.473H139.233V311.373H139.267V311.307H139.3V311.207H139.333V311.107H139.367V311.04H139.4V310.94H139.433V310.84H139.467V310.773H139.5V310.673H139.533V310.607H139.567V310.507H139.6V310.407H139.633V310.34H139.667V310.24H139.7V310.14H139.733V310.073H139.767V309.973H139.8V309.873H139.833V309.807H139.867V309.707H139.9V309.64H139.933V309.54H139.967V309.44H140V309.373H140.033V309.273H140.067V309.173H140.1V309.107H140.133V309.007H140.167V308.907H140.2V308.84H140.233V308.74H140.267V308.673H140.3V308.573H140.333V308.473H140.367V308.407H140.4V308.307H140.433V308.207H140.467V308.14H140.5V308.04H140.533V307.94H140.567V307.873H140.6V307.773H140.633V307.707H140.667V307.607H140.7V307.507H140.733V307.44H140.767V307.34H140.8V307.24H140.833V307.173H140.867V307.073H140.9V306.973H140.933V306.907H140.967V306.807H141V306.74H141.033V306.64H141.067V306.54H141.1V306.473H141.133V306.373H141.167V306.273H141.2V306.207H141.233V306.107H141.267V306.007H141.3V305.94H141.333V305.84H141.367V305.773H141.4V305.673H141.433V305.573H141.467V305.507H141.5V305.407H141.533V305.307H141.567V305.24H141.6V305.14H141.633V305.04H141.667V304.973H141.7V304.873H141.733V304.807H141.767V304.707H141.8V304.607H141.833V304.54H141.867V304.44H141.9V304.34H141.933V304.273H141.967V304.173H142V304.073H142.033V304.007H142.067V303.907H142.1V303.84H142.133V303.74H142.167V303.64H142.2V303.573H142.233V303.473H142.267V303.373H142.3V303.307H142.333V303.207H142.367V303.14H142.4V303.04H142.433V302.94H142.467V302.873H142.5V302.773H142.533V302.673H142.567V302.607H142.6V302.507H142.633V302.407H142.667V302.34H142.7V302.24H142.733V302.173H142.767V302.073H142.8V301.973H142.833V301.907H142.867V301.807H142.9V301.707H142.933V301.64H142.967V301.54H143V301.44H143.033V301.373H143.067V301.273H143.1V301.207H143.133V301.107H143.167V301.007H143.2V300.94H143.233V300.84H143.267V300.74H143.3V300.673H143.333V300.573H143.367V300.473H143.4V300.407H143.433V300.307H143.467V300.24H143.5V300.14H143.533V300.04H143.567V299.973H143.6V299.873H143.633V299.773H143.667V299.707H143.7V299.607H143.733V299.507H143.767V299.44H143.8V299.34H143.833V299.273H143.867V299.173H143.9V299.073H143.933V299.007H143.967V298.907H144V298.807H144.033V298.74H144.067V298.64H144.1V298.54H144.133V298.473H144.167V298.373H144.2V298.307H144.233V298.207H144.267V298.107H144.3V298.04H144.333V297.94H144.367V297.84H144.4V297.773H144.433V297.673H144.467V297.573H144.5V297.507H144.533V297.407H144.567V297.34H144.6V297.24H144.633V297.14H144.667V297.073H144.7V296.973H144.733V296.873H144.767V296.807H144.8V296.707H144.833V296.607H144.867V296.54H144.9V296.44H144.933V296.373H144.967V296.273H145V296.173H145.033V296.107H145.067V296.007H145.1V295.907H145.133V295.84H145.167V295.74H145.2V295.64H145.233V295.573H145.267V295.473H145.3V295.407H145.333V295.307H145.367V295.207H145.4V295.14H145.433V295.04H145.467V294.94H145.5V294.873H145.533V294.773H145.567V294.673H145.6V294.607H145.633V294.507H145.667V294.44H145.7V294.34H145.733V294.24H145.767V294.173H145.8V294.073H145.833V293.973H145.867V293.907H145.9V293.807H145.933V293.707H145.967V293.64H146V293.54H146.033V293.473H146.067V293.373H146.1V293.273H146.133V293.207H146.167V293.107H146.2V293.007H146.233V292.94H146.267V292.84H146.3V292.773H146.333V292.673H146.367V292.573H146.4V292.507H146.433V292.407H146.467V292.307H146.5V292.24H146.533V292.14H146.567V292.04H146.6V291.973H146.633V291.873H146.667V291.807H146.7V291.707H146.733V291.607H146.767V291.54H146.8V291.44H146.833V291.34H146.867V291.273H146.9V291.173H146.933V291.073H146.967V291.007H147V290.907H147.033V290.84H147.067V290.74H147.1V290.64H147.133V290.573H147.167V290.473H147.2V290.373H147.233V290.307H147.267V290.207H147.3V290.107H147.333V290.04H147.367V289.94H147.4V289.873H147.433V289.773H147.467V289.673H147.5V289.607H147.533V289.507H147.567V289.407H147.6V289.34H147.633V289.24H147.667V289.14H147.7V289.073H147.733V288.973H147.767V288.907H147.8V288.807H147.833V288.707H147.867V288.64H147.9V288.54H147.933V288.44H147.967V288.373H148V288.273H148.033V288.173H148.067V288.107H148.1V288.007H148.133V287.94H148.167V287.84H148.2V287.74H148.233V287.673H148.267V287.573H148.3V287.473H148.333V287.407H148.367V287.307H148.4V287.207H148.433V287.14H148.467V287.04H148.5V286.973H148.533V286.873H148.567V286.773H148.6V286.707H148.633V286.607H148.667V286.507H148.7V286.44H148.733V286.34H148.767V286.24H148.8V286.173H148.833V286.073H148.867V286.007H148.9V285.907H148.933V285.807H148.967V285.74H149V285.64H149.033V285.54H149.067V285.473H149.1V285.373H149.133V285.273H149.167V285.207H149.2V285.107H149.233V285.04H149.267V284.94H149.3V284.84H149.333V284.773H149.367V284.673H149.4V284.573H149.433V284.507H149.467V284.407H149.5V284.307H149.533V284.24H149.567V284.14H149.6V284.073H149.633V283.973H149.667V283.873H149.7V283.807H149.733V283.707H149.767V283.607H149.8V283.54H149.833V283.44H149.867V283.373H149.9V283.273H149.933V283.173H149.967V283.107H150V283.007H150.033V282.907H150.067V282.84H150.1V282.74H150.133V282.64H150.167V282.573H150.2V282.473H150.233V282.407H150.267V282.307H150.3V282.207H150.333V282.14H150.367V282.04H150.4V281.94H150.433V281.873H150.467V281.773H150.5V281.673H150.533V281.607H150.567V281.507H150.6V281.44H150.633V281.34H150.667V281.24H150.7V281.173H150.733V281.073H150.767V280.973H150.8V280.907H150.833V280.807H150.867V280.707H150.9V280.64H150.933V280.54H150.967V280.473H151V280.373H151.033V280.273H151.067V280.207H151.1V280.107H151.133V280.007H151.167V279.94H151.2V279.84H151.233V279.74H151.267V279.673H151.3V279.573H151.333V279.507H151.367V279.407H151.4V279.307H151.433V279.24H151.467V279.14H151.5V279.04H151.533V278.973H151.567V278.873H151.6V278.773H151.633V278.707H151.667V278.607H151.7V278.54H151.733V278.44H151.767V278.34H151.8V278.273H151.833V278.173H151.867V278.073H151.9V278.007H151.933V277.907H151.967V277.807H152V277.74H152.033V277.64H152.067V277.573H152.1V277.473H152.133V277.373H152.167V277.307H152.2V277.207H152.233V277.107H152.267V277.04H152.3V276.94H152.333V276.84H152.367V276.773H152.4V276.673H152.433V276.607H152.467V276.507H152.5V276.407H152.533V276.34H152.567V276.24H152.6V276.14H152.633V276.073H152.667V275.973H152.7V275.873H152.733V275.807H152.767V275.707H152.8V275.64H152.833V275.54H152.867V275.44H152.9V275.373H152.933V275.273H152.967V275.173H153V275.107H153.033V275.007H153.067V274.907H153.1V274.84H153.133V274.74H153.167V274.673H153.2V274.573H153.233V274.473H153.267V274.407H153.3V274.307H153.333V274.207H153.367V274.14H153.4V274.04H153.433V273.94H153.467V273.873H153.5V273.773H153.533V273.707H153.567V273.607H153.6V273.507H153.633V273.44H153.667V273.34H153.7V273.24H153.733V273.173H153.767V273.073H153.8V273.007H153.833V272.907H153.867V272.807H153.9V272.74H153.933V272.64H153.967V272.54H154V272.473H154.033V272.373H154.067V272.273H154.1V272.207H154.133V272.107H154.167V272.04H154.2V271.94H154.233V271.84H154.267V271.773H154.3V271.673H154.333V271.573H154.367V271.507H154.4V271.407H154.433V271.307H154.467V271.24H154.5V271.14H154.533V271.073H154.567V270.973H154.6V270.873H154.633V270.807H154.667V270.707H154.7V270.607H154.733V270.54H154.767V270.44H154.8V270.34H154.833V270.273H154.867V270.173H154.9V270.107H154.933V270.007H154.967V269.907H155V269.84H155.033V269.74H155.067V269.64H155.1V269.573H155.133V269.473H155.167V269.373H155.2V269.307H155.233V269.207H155.267V269.14H155.3V269.04H155.333V268.94H155.367V268.873H155.4V268.773H155.433V268.673H155.467V268.607H155.5V268.507H155.533V268.407H155.567V268.34H155.6V268.24H155.633V268.173H155.667V268.073H155.7V267.973H155.733V267.907H155.767V267.807H155.8V267.707H155.833V267.64H155.867V267.54H155.9V267.44H155.933V267.373H155.967V267.273H156V267.207H156.033V267.107H156.067V267.007H156.1V266.94H156.133V266.84H156.167V266.74H156.2V266.673H156.233V266.573H156.267V266.473H156.3V266.407H156.333V266.307H156.367V266.24H156.4V266.14H156.433V266.04H156.467V265.973H156.5V265.873H156.533V265.773H156.567V265.707H156.6V265.607H156.633V265.507H156.667V265.44H156.7V265.34H156.733V265.273H156.767V265.173H156.8V265.073H156.833V265.007H156.867V264.907H156.9V264.807H156.933V264.74H156.967V264.64H157V264.54H157.033V264.473H157.067V264.373H157.1V264.307H157.133V264.207H157.167V264.107H157.2V264.04H157.233V263.94H157.267V263.84H157.3V263.773H157.333V263.673H157.367V263.573H157.4V263.507H157.433V263.407H157.467V263.34H157.5V263.24H157.533V263.14H157.567V263.073H157.6V262.973H157.633V262.873H157.667V262.807H157.7V262.707H157.733V262.64H157.767V262.54H157.8V262.44H157.833V262.373H157.867V262.273H157.9V262.173H157.933V262.107H157.967V262.007H158V261.907H158.033V261.84H158.067V261.74H158.1V261.673H158.133V261.573H158.167V261.473H158.2V261.407H158.233V261.307H158.267V261.207H158.3V261.14H158.333V261.04H158.367V260.94H158.4V260.873H158.433V260.773H158.467V260.707H158.5V260.607H158.533V260.507H158.567V260.44H158.6V260.34H158.633V260.24H158.667V260.173H158.7V260.073H158.733V259.973H158.767V259.907H158.8V259.807H158.833V259.74H158.867V259.64H158.9V259.54H158.933V259.473H158.967V259.373H159V259.273H159.033V259.207H159.067V259.107H159.1V259.007H159.133V258.94H159.167V258.84H159.2V258.773H159.233V258.673H159.267V258.573H159.3V258.507H159.333V258.407H159.367V258.307H159.4V258.24H159.433V258.14H159.467V258.04H159.5V257.973H159.533V257.873H159.567V257.807H159.6V257.707H159.633V257.607H159.667V257.54H159.7V257.44H159.733V257.34H159.767V257.273H159.8V257.173H159.833V257.073H159.867V257.007H159.9V256.907H159.933V256.84H159.967V256.74H160V256.64H160.033V256.573H160.067V256.473H160.1V256.373H160.133V256.307H160.167V256.207H160.2V256.107H160.233V256.04H160.267V255.94H160.3V255.873H160.333V255.773H160.367V255.673H160.4V255.607H160.433V255.507H160.467V255.407H160.5V255.34H160.533V255.24H160.567V255.14H160.6V255.073H160.633V254.973H160.667V254.907H160.7V254.807H160.733V254.707H160.767V254.64H160.8V254.54H160.833V254.44H160.867V254.373H160.9V254.273H160.933V254.207H160.967V254.107H161V254.007H161.033V253.94H161.067V253.84H161.1V253.74H161.133V253.673H161.167V253.573H161.2V253.473H161.233V253.407H161.267V253.307H161.3V253.24H161.333V253.14H161.367V253.04H161.4V252.973H161.433V252.873H161.467V252.773H161.5V252.707H161.533V252.607H161.567V252.507H161.6V252.44H161.633V252.34H161.8V252.307H161.833V252.207H161.867V252.14H161.9V252.04H161.933V251.94H161.967V251.873H162V251.773H162.033V251.707H162.067V251.607H162.1V251.507H162.133V251.44H162.167V251.34H162.2V251.24H162.233V251.173H162.267V251.073H162.3V251.007H162.333V250.907H162.367V250.807H162.4V250.74H162.433V250.64H162.467V250.54H249.667V250.44H249.633V250.373H249.6V250.273H249.567V250.207H249.533V250.107H249.5V250.04H249.467V249.94H249.433V249.873H249.4V249.773H249.367V249.707H249.333V249.607H249.3V249.54H249.267V249.44H249.233V249.373H249.2V249.273H249.167V249.207H249.133V249.107H249.1V249.007H249.067V248.94H249.033V248.84H249V248.773H248.967V248.673H248.933V248.607H248.9V248.507H248.867V248.44H248.833V248.34H248.8V248.273H248.767V248.173H248.733V248.107H248.7V248.007H248.667V247.94H248.633V247.84H248.6V247.773H248.567V247.673H248.533V247.607H248.5V247.507H248.467V247.44H248.433V247.34H248.4V247.273H248.367V247.173H248.333V247.107H248.3V247.007H248.267V246.907H248.233V246.84H248.2V246.74H248.167V246.673H248.133V246.573H248.1V246.507H248.067V246.407H248.033V246.34H248V246.24H247.967V246.173H247.933V246.073H247.9V246.007H247.867V245.907H247.833V245.84H247.8V245.74H247.767V245.673H247.733V245.573H247.7V245.507H247.667V245.407H247.633V245.34H247.6V245.24H247.567V245.173H247.533V245.073H247.5V245.007H247.467V244.907H247.433V244.807H247.4V244.74H247.367V244.64H247.333V244.573H247.3V244.473H247.267V244.407H247.233V244.307H247.2V244.24H247.167V244.14H247.133V244.073H247.1V243.973H247.067V243.907H247.033V243.807H247V243.74H246.967V243.64H246.933V243.573H246.9V243.473H246.867V243.407H246.833V243.307H246.8V243.24H246.767V243.14H246.733V243.073H246.7V242.973H246.667V242.873H246.633V242.807H246.6V242.707H246.567V242.64H246.533V242.54H246.5V242.473H246.467V242.373H246.433V242.307H246.4V242.207H246.367V242.14H246.333V242.04H246.3V241.973H246.267V241.873H246.233V241.807H246.2V241.707H246.167V241.64H246.133V241.54H246.1V241.473H246.067V241.373H246.033V241.307H246V241.207H245.967V241.14H245.933V241.04H245.9V240.973H245.867V240.873H245.833V240.773H245.8V240.707H245.767V240.607H245.733V240.54H245.7V240.44H245.667V240.373H245.633V240.273H245.6V240.207H245.567V240.107H245.533V240.04H245.5V239.94H245.467V239.873H245.433V239.773H245.4V239.707H245.367V239.607H245.333V239.54H245.3V239.44H245.267V239.373H245.233V239.273H245.2V239.207H245.167V239.107H245.133V239.04H245.1V238.94H245.067V238.873H245.033V238.773H245V238.673H244.967V238.607H244.933V238.507H244.9V238.44H244.867V238.34H244.833V238.273H244.8V238.173H244.767V238.107H244.733V238.007H244.7V237.94H244.667V237.84H244.633V237.773H244.6V237.673H244.567V237.607H244.533V237.507H244.5V237.44H244.467V237.34H244.433V237.273H244.4V237.173H244.367V237.107H244.333V237.007H244.3V236.94H244.267V236.84H244.233V236.773H244.2V236.673H244.167V236.573H244.133V236.507H244.1V236.407H244.067V236.34H244.033V236.24H244V236.173H243.967V236.073H243.933V236.007H243.9V235.907H243.867V235.84H243.833V235.74H243.8V235.673H243.767V235.573H243.733V235.507H243.7V235.407H243.667V235.34H243.633V235.24H243.6V235.173H243.567V235.073H243.533V235.007H243.5V234.907H243.467V234.84H243.433V234.74H243.4V234.64H243.367V234.573H243.333V234.473H243.3V234.407H243.267V234.307H243.233V234.24H243.2V234.14H243.167V234.073H243.133V233.973H243.1V233.907H243.067V233.807H243.033V233.74H243V233.64H242.967V233.573H242.933V233.473H242.9V233.407H242.867V233.307H242.833V233.24H242.8V233.14H242.767V233.073H242.733V232.973H242.7V232.907H242.667V232.807H242.633V232.74H242.6V232.64H242.567V232.54H242.533V232.473H242.5V232.373H242.467V232.307H242.433V232.207H242.4V232.14H242.367V232.04H242.333V231.973H242.3V231.873H242.267V231.807H242.233V231.707H242.2V231.64H242.167V231.54H242.133V231.473H242.1V231.373H242.067V231.307H242.033V231.207H242V231.14H241.967V231.04H241.933V230.973H241.9V230.873H241.867V230.807H241.833V230.707H241.8V230.64H241.767V230.54H241.733V230.44H241.7V230.373H241.667V230.273H241.633V230.207H241.6V230.107H241.567V230.04H241.533V229.94H241.5V229.873H241.467V229.773H241.433V229.707H241.4V229.607H241.367V229.54H241.333V229.44H241.3V229.373H241.267V229.273H241.233V229.207H241.2V229.107H241.167V229.04H241.133V228.94H241.1V228.873H241.067V228.773H241.033V228.707H241V228.607H240.967V228.54H240.933V228.44H240.9V228.34H240.867V228.273H240.833V228.173H240.8V228.107H240.767V228.007H240.733V227.94H240.7V227.84H240.667V227.773H240.633V227.673H240.6V227.607H240.567V227.507H240.533V227.44H240.5V227.34H240.467V227.273H240.433V227.173H240.4V227.107H240.367V227.007H240.333V226.94H240.3V226.84H240.267V226.773H240.233V226.673H240.2V226.607H240.167V226.507H240.133V226.407H240.1V226.34H240.067V226.24H240.033V226.173H240V226.073H239.967V226.007H239.933V225.907H239.9V225.84H239.867V225.74H239.833V225.673H239.8V225.573H239.767V225.507H239.733V225.407H239.7V225.34H239.667V225.24H239.633V225.173H239.6V225.073H239.567V225.007H239.533V224.907H239.5V224.84H239.467V224.74H239.433V224.673H239.4V224.573H239.367V224.507H239.333V224.407H239.3V224.307H239.267V224.24H239.233V224.14H239.2V224.073H239.167V223.973H239.133V223.907H239.1V223.807H239.067V223.74H239.033V223.64H239V223.573H238.967V223.473H238.933V223.407H238.9V223.307H238.867V223.24H238.833V223.14H238.8V223.073H238.767V222.973H238.733V222.907H238.7V222.807H238.667V222.74H238.633V222.64H238.6V222.573H238.567V222.473H238.533V222.407H238.5V222.307H238.467V222.207H238.433V222.14H238.4V222.04H238.367V221.973H238.333V221.873H238.3V221.807H238.267V221.707H238.233V221.64H238.2V221.54H238.167V221.473H238.133V221.373H238.1V221.307H238.067V221.207H238.033V221.14H238V221.04H237.967V220.973H237.933V220.873H237.9V220.807H237.867V220.707H237.833V220.64H237.8V220.54H237.767V220.473H237.733V220.373H237.7V220.307H237.667V220.207H237.633V220.107H237.6V220.04H237.567V219.94H237.533V219.873H237.5V219.773H237.467V219.707H237.433V219.607H237.4V219.54H237.367V219.44H237.333V219.373H237.3V219.273H237.267V219.207H237.233V219.107H237.2V219.04H237.167V218.94H237.133V218.873H237.1V218.773H237.067V218.707H237.033V218.607H237V218.54H236.967V218.44H236.933V218.373H236.9V218.273H236.867V218.207H236.833V218.107H236.8V218.007H236.767V217.94H236.733V217.84H236.7V217.773H236.667V217.673H236.633V217.607H236.6V217.507H236.567V217.44H236.533V217.34H236.5V217.273H236.467V217.173H236.433V217.107H236.4V217.007H236.367V216.94H236.333V216.84H236.3V216.773H236.267V216.673H236.233V216.607H236.2V216.507H236.167V216.44H236.133V216.34H236.1V216.273H236.067V216.173H236.033V216.073H236V216.007H235.967V215.907H235.933V215.84H235.9V215.74H235.867V215.673H235.833V215.573H235.8V215.507H235.767V215.407H235.733V215.34H235.7V215.24H235.667V215.173H235.633V215.073H235.6V215.007H235.567V214.907H235.533V214.84H235.5V214.74H235.467V214.673H235.433V214.573H235.4V214.507H235.367V214.407H235.333V214.34H235.3V214.24H235.267V214.173H235.233V214.073H235.2V213.973H235.167V213.907H235.133V213.807H235.1V213.74H235.067V213.64H235.033V213.573H235V213.473H234.967V213.407H234.933V213.307H234.9V213.24H234.867V213.14H234.833V213.073H234.8V212.973H234.767V212.907H234.733V212.807H234.7V212.74H234.667V212.64H234.633V212.573H234.6V212.473H234.567V212.407H234.533V212.307H234.5V212.24H234.467V212.14H234.433V212.073H234.4V211.973H234.367V211.873H234.333V211.807H234.3V211.707H234.267V211.64H234.233V211.54H234.2V211.473H234.167V211.373H234.133V211.307H234.1V211.207H234.067V211.14H234.033V211.04H234V210.973H233.967V210.873H233.933V210.807H233.9V210.707H233.867V210.64H233.833V210.54H233.8V210.473H233.767V210.373H233.733V210.307H233.7V210.207H233.667V210.14H233.633V210.04H233.6V209.973H233.567V209.873H233.533V209.773H233.5V209.707H233.467V209.607H233.433V209.54H233.4V209.44H233.367V209.373H233.333V209.273H233.3V209.207H233.267V209.107H233.233V209.04H233.2V208.94H233.167V208.873H233.133V208.773H233.1V208.707H233.067V208.607H233.033V208.54H233V208.44H232.967V208.373H232.933V208.273H232.9V208.207H232.867V208.107H232.833V208.04H232.8V207.94H232.767V207.84H232.733V207.773H232.7V207.673H232.667V207.607H232.633V207.507H232.6V207.44H232.567V207.34H232.533V207.273H232.5V207.173H232.467V207.107H232.433V207.007H232.4V206.94H232.367V206.84H232.333V206.773H232.3V206.673H232.267V206.607H232.233V206.507H232.2V206.44H232.167V206.34H232.133V206.273H232.1V206.173H232.067V206.107H232.033V206.007H232V205.94H231.967V205.84H231.933V205.74H231.9V205.673H231.867V205.573H231.833V205.507H231.8V205.407H231.767V205.34H231.733V205.24H231.7V205.173H231.667V205.073H231.633V205.007H231.6V204.907H231.567V204.84H231.533V204.74H231.5V204.673H231.467V204.573H231.433V204.507H231.4V204.407H231.367V204.34H231.333V204.24H231.3V204.173H231.267V204.073H231.233V204.007H231.2V203.907H231.167V203.84H231.133V203.74H231.1V203.64H231.067V203.573H231.033V203.473H231V203.407H230.967V203.307H230.933V203.24H230.9V203.14H230.867V203.073H230.833V202.973H230.8V202.907H230.767V202.807H230.733V202.74H230.7V202.64H230.667V202.573H230.633V202.473H230.6V202.407H230.567V202.307H230.533V202.24H230.5V202.14H230.467V202.073H230.433V201.973H230.4V201.907H230.367V201.807H230.333V201.74H230.3V201.64H230.267V201.54H230.233V201.473H230.2V201.373H230.167V201.307H230.133V201.207H230.1V201.14H230.067V201.04H230.033V200.973H230V200.873H229.967V200.807H229.933V200.707H229.9V200.64H229.867V200.54H229.833V200.473H229.8V200.373H229.767V200.307H229.733V200.207H229.7V200.14H229.667V200.04H229.633V199.973H229.6V199.873H229.567V199.807H229.533V199.707H229.5V199.607H229.467V199.54H229.433V199.44H229.4V199.373H229.367V199.273H229.333V199.207H229.3V199.107H229.267V199.04H229.233V198.94H229.2V198.873H229.167V198.773H229.133V198.707H229.1V198.607H229.067V198.54H229.033V198.44H229V198.373H228.967V198.273H228.933V198.207H228.9V198.107H228.867V198.04H228.833V197.94H228.8V197.873H228.767V197.773H228.733V197.707H228.7V197.607H228.667V197.507H228.633V197.44H228.6V197.34H228.567V197.273H228.533V197.173H228.5V197.107H228.467V197.007H228.433V196.94H228.4V196.84H228.367V196.773H228.333V196.673H228.3V196.607H228.267V196.507H228.233V196.44H228.2V196.34H228.167V196.273H228.133V196.173H228.1V196.107H228.067V196.007H228.033V195.94H228V195.84H227.967V195.773H227.933V195.673H227.9V195.607H227.867V195.507H227.833V195.407H227.8V195.34H227.767V195.24H227.733V195.173H227.7V195.073H227.667V195.007H227.633V194.907H227.6V194.84H227.567V194.74H227.533V194.673H227.5V194.573H227.467V194.507H227.433V194.407H227.4V194.34H227.367V194.24H227.333V194.173H227.3V194.073H227.267V194.007H227.233V193.907H227.2V193.84H227.167V193.74H227.133V193.673H227.1V193.573H227.067V193.507H227.033V193.407H227V193.307H226.967V193.24H226.933V193.14H226.9V193.073H226.867V192.973H226.833V192.907H226.8V192.807H226.767V192.74H226.733V192.64H226.7V192.573H226.667V192.473H226.633V192.407H226.6V192.307H226.567V192.24H226.533V192.14H226.5V192.073H226.467V191.973H226.433V191.907H226.4V191.807H226.367V191.74H226.333V191.64H226.3V191.573H226.267V191.473H226.233V191.373H226.2V191.307H226.167V191.207H226.133V191.14H226.1V191.04H226.067V190.973H226.033V190.873H226V190.807H225.967V190.707H225.933V190.64H225.9V190.54H225.867V190.473H225.833V190.373H225.8V190.307H225.767V190.207H225.733V190.14H225.7V190.04H225.667V189.973H225.633V189.873H225.6V189.807H225.567V189.707H225.533V189.64H225.5V189.54H225.467V189.473H225.433V189.373H225.4V189.273H225.367V189.207H225.333V189.107H225.3V189.04H225.267V188.94H225.233V188.873H225.2V188.773H225.167V188.707H225.133V188.607H225.1V188.54H225.067V188.44H225.033V188.373H225V188.273H224.967V188.207H224.933V188.107H224.9V188.04H224.867V187.94H224.833V187.873H224.8V187.773H224.767V187.707H224.733V187.607H224.7V187.54H224.667V187.44H224.633V187.373H224.6V187.273H224.567V187.173H224.533V187.107H224.5V187.007H224.467V186.94H224.433V186.84H224.4V186.773H224.367V186.673H224.333V186.607H224.3V186.507H224.267V186.44H224.233V186.34H224.2V186.273H224.167V186.173H224.133V186.107H224.1V186.007H224.067V185.94H224.033V185.84H224V185.773H223.967V185.673H223.933V185.607H223.9V185.507H223.867V185.44H223.833V185.34H223.8V185.273H223.767V185.173H223.733V185.073H223.7V185.007H223.667V184.907H223.633V184.84H223.6V184.74H223.567V184.673H223.533V184.573H223.5V184.507H223.467V184.407H223.433V184.34H223.4V184.24H223.367V184.173H223.333V184.073H223.3V184.007H223.267V183.907H223.233V183.84H223.2V183.74H223.167V183.673H223.133V183.573H223.1V183.507H223.067V183.407H223.033V183.34H223V183.24H222.967V183.14H222.933V183.073H222.9V182.973H222.867V182.907H222.833V182.807H222.8V182.74H222.767V182.64H222.733V182.573H222.7V182.473H222.667V182.407H222.633V182.307H222.6V182.24H222.567V182.14H222.533V182.073H222.5V181.973H222.467V181.907H222.433V181.807H222.4V181.74H222.367V181.64H222.333V181.573H222.3V181.473H222.267V181.407H222.233V181.307H222.2V181.24H222.167V181.14H222.133V181.04H222.1V180.973H222.067V180.873H222.033V180.807H222V180.707H221.967V180.64H221.933V180.54H221.9V180.473H221.867V180.373H221.833V180.307H221.8V180.207H221.767V180.14H221.733V180.04H221.7V179.973H221.667V179.873H221.633V179.807H221.6V179.707H221.567V179.64H221.533V179.54H221.5V179.473H221.467V179.373H221.433V179.307H221.4V179.207H221.367V179.14H221.333V179.04H221.3V178.94H221.267V178.873H221.233V178.773H221.2V178.707H221.167V178.607H221.133V178.54H221.1V178.44H221.067V178.373H221.033V178.273H221V178.207H220.967V178.107H220.933V178.04H220.9V177.94H220.867V177.873H220.833V177.773H220.8V177.707H220.767V177.607H220.733V177.54H220.7V177.44H220.667V177.373H220.633V177.273H220.6V177.207H220.567V177.107H220.533V177.04H220.5V176.94H220.467V176.84H220.433V176.773H220.4V176.673H220.367V176.607H220.333V176.507H220.3V176.44H220.267V176.34H220.233V176.273H220.2V176.173H220.167V176.107H220.133V176.007H220.1V175.94H220.067V175.84H220.033V175.773H220V175.673H219.967V175.607H219.933V175.507H219.9V175.44H219.867V175.34H219.833V175.273H219.8V175.173H219.767V175.107H219.733V175.007H219.7V174.94H219.667V174.84H219.633V174.74H219.6V174.673H219.567V174.573H219.533V174.507H219.5V174.407H219.467V174.34H219.433V174.24H219.4V174.173H219.367V174.073H219.333V174.007H219.3V173.907H219.267V173.84H219.233V173.74H219.2V173.673H219.167V173.573H219.133V173.507H219.1V173.407H219.067V173.34H219.033V173.24H219V173.173H218.967V173.073H218.933V173.007H218.9V172.907H218.867V172.807H218.833V172.74H218.8V172.64H218.767V172.573H218.733V172.473H218.7V172.407H218.667V172.307H218.633V172.24H218.6V172.14H218.567V172.073H218.533V171.973H218.5V171.907H218.467V171.807H218.433V171.74H218.4V171.64H218.367V171.573H218.333V171.473H218.3V171.407H218.267V171.307H218.233V171.24H218.2V171.14H218.167V171.073H218.133V170.973H218.1V170.907H218.067V170.807H218.033V170.707H218V170.64H217.967V170.54H217.933V170.473H217.9V170.373H217.867V170.307H217.833V170.207H217.8V170.14H217.767V170.04H217.733V169.973H217.7V169.873H217.667V169.807H217.633V169.707H217.6V169.64H217.567V169.54H217.533V169.473H217.5V169.373H217.467V169.307H217.433V169.207H217.4V169.14H217.367V169.04H217.333V168.973H217.3V168.873H217.267V168.807H217.233V168.707H217.2V168.607H217.167V168.54H217.133V168.44H217.1V168.373H217.067V168.273H217.033V168.207H217V168.107H216.967V168.04H216.933V167.94H216.9V167.873H216.867V167.773H216.833V167.707H216.8V167.607H216.767V167.54H216.733V167.44H216.7V167.373H216.667V167.273H216.633V167.207H216.6V167.107H216.567V167.04H216.533V166.94H216.5V166.873H216.467V166.773H216.433V166.707H216.4V166.607H216.367V166.507H216.333V166.44H216.3V166.34H216.267V166.273H216.233V166.173H216.2V166.107H216.167V166.007H216.133V165.94H216.1V165.84H216.067V165.773H216.033V165.673H216V165.607H215.967V165.507H215.933V165.44H215.9V165.34H215.867V165.273H215.833V165.173H215.8V165.107H215.767V165.007H215.733V164.94H215.7V164.84H215.667V164.773H215.633V164.673H215.6V164.573H215.567V164.507H215.533V164.407H215.5V164.34H215.467V164.24H215.433V164.173H215.4V164.073H215.367V164.007H215.333V163.907H215.3V163.84H215.267V163.74H215.233V163.673H215.2V163.573H215.167V163.507H215.133V163.407H215.1V163.34H215.067V163.24H215.033V163.173H215V163.073H214.967V163.007H214.933V162.907H214.9V162.84H214.867V162.74H214.833V162.673H214.8V162.573H214.767V162.473H214.733V162.407H214.7V162.307H214.667V162.24H214.633V162.14H214.6V162.073H214.567V161.973H214.533V161.907H214.5V161.807H214.467V161.74H214.433V161.64H214.4V161.573H214.367V161.473H214.333V161.407H214.3V161.307H214.267V161.24H214.233V161.14H214.2V161.073H214.167V160.973H214.133V160.907H214.1V160.807H214.067V160.74H214.033V160.64H214V160.573H213.967V160.473H213.933V160.373H213.9V160.307H213.867V160.207H213.833V160.14H213.8V160.04H213.767V159.973H213.733V159.873H213.7V159.807H213.667V159.707H213.633V159.64H213.6V159.54H213.567V159.473H213.533V159.373H213.5V159.307H213.467V159.207H213.433V159.14H213.4V159.04H213.367V158.973H213.333V158.873H213.3V158.807H213.267V158.707H213.233V158.64H213.2V158.54H213.167V158.473H213.133V158.373H213.1V158.273H213.067V158.207H213.033V158.107H213V158.04H212.967V157.94H212.933V157.873H212.9V157.773H212.867V157.707H212.833V157.607H212.8V157.54H212.767V157.44H212.733V157.373H212.7V157.273H212.667V157.207H212.633V157.107H212.6V157.04H212.567V156.94H212.533V156.873H212.5V156.773H212.467V156.707H212.433V156.607H212.4V156.54H212.367V156.44H212.333V156.34H212.3V156.273H212.267V156.173H212.233V156.107H212.2V156.007H212.167V155.94H212.133V155.84H212.1V155.773H212.067V155.673H212.033V155.607H212V155.507H211.967V155.44H211.933V155.34H211.9V155.273H211.867V155.173H211.833V155.107H211.8V155.007H211.767V154.94H211.733V154.84H211.7V154.773H211.667V154.673H211.633V154.607H211.6V154.507H211.567V154.44H211.533V154.34H211.5V154.24H211.467V154.173H211.433V154.073H211.4V154.007H211.367V153.907H211.333V153.84H211.3V153.74H211.267V153.673H211.233V153.573H211.2V153.507H211.167V153.407H211.133V153.34H211.1V153.24H211.067V153.173H211.033V153.073H211V153.007H210.967V152.907H210.933V152.84H210.9V152.74H210.867V152.673H210.833V152.573H210.8V152.507H210.767V152.407H210.733V152.34H210.7V152.24H210.667V152.14H210.633V152.073H210.6V151.973H210.567V151.907H210.533V151.807H210.5V151.74H210.467V151.64H210.433V151.573H210.4V151.473H210.367V151.407H210.333V151.307H210.3V151.24H210.267V151.14H210.233V151.073H210.2V150.973H210.167V150.907H210.133V150.807H210.1V150.74H210.067V150.64H210.033V150.573H210V150.473H209.967V150.407H209.933V150.307H209.9V150.24H209.867V150.14H209.833V150.04H209.8V149.973H209.767V149.873H209.733V149.807H209.7V149.707H209.667V149.64H209.633V149.54H209.6V149.473H209.567V149.373H209.533V149.307H209.5V149.207H209.467V149.14H209.433V149.04H209.4V148.973H209.367V148.873H209.333V148.807H209.3V148.707H209.267V148.64H209.233V148.54H209.2V148.473H209.167V148.373H209.133V148.307H209.1V148.207H209.067V148.107H209.033V148.04H209V147.94H208.967V147.873H208.933V147.773H208.9V147.707H208.867V147.607H208.833V147.54H208.8V147.44H208.767V147.373H208.733V147.273H208.7V147.207H208.667V147.107H208.633V147.04H208.6V146.94H208.567V146.873H208.533V146.773H208.5V146.707H208.467V146.607H208.433V146.54H208.4V146.44H208.367V146.373H208.333V146.273H208.3V146.207H208.267V146.107H208.233V146.007H208.2V145.94H208.167V145.84H208.133V145.773H208.1V145.673H208.067V145.607H208.033V145.507H208V145.44H207.967V145.34H207.933V145.273H207.9V145.173H207.867V145.107H207.833V145.007H207.8V144.94H207.767V144.84H207.733V144.773H207.7V144.673H207.667V144.607H207.633V144.507H207.6V144.44H207.567V144.34H207.533V144.273H207.5V144.173H207.467V144.107H207.433V144.007H207.4V143.907H207.367V143.84H207.333V143.74H207.3V143.673H207.267V143.573H207.233V143.507H207.2V143.407H207.167V143.34H207.133V143.24H207.1V143.173H207.067V143.073H207.033V143.007H207V142.907H206.967V142.84H206.933V142.74H206.9V142.673H206.867V142.573H206.833V142.507H206.8V142.407H206.767V142.34H206.733V142.24H206.7V142.173H206.667V142.073H206.633V142.007H206.6V141.907H206.567V141.807H206.533V141.74H206.5V141.64H206.467V141.573H206.433V141.473H206.4V141.407H206.367V141.307H206.333V141.24H206.3V141.14H206.267V141.073H206.233V140.973H206.2V140.907H206.167V140.807H206.133V140.74H206.1V140.64H206.067V140.573H206.033V140.473H206V140.407H205.967V140.307H205.933V140.24H205.9V140.14H205.867V140.073H205.833V139.973H205.8V139.873H205.767V139.807H205.733V139.707H205.7V139.64H205.667V139.54H205.633V139.473H205.6V139.373H205.567V139.307H205.533V139.207H205.5V139.14H205.467V139.04H205.433V138.973H205.4V138.873H205.367V138.807H205.333V138.707H205.3V138.64H205.267V138.54H205.233V138.473H205.2V138.373H205.167V138.307H205.133V138.207H205.1V138.14H205.067V138.04H205.033V138.007H290.633V138.04H290.9V138.073H291.033V138.107H291.2V138.14H291.333V138.173H291.467V138.207H291.633V138.24H291.7V138.273H291.8V138.307H291.867V138.34H291.967V138.373H292.033V138.407H292.133V138.44H292.2V138.473H292.3V138.507H292.367V138.54H292.433V138.573H292.5V138.607H292.533V138.64H292.6V138.673H292.667V138.707H292.733V138.74H292.767V138.773H292.833V138.807H292.9V138.84H292.933V138.873H293V138.907H293.067V138.94H293.1V138.973H293.133V139.007H293.167V139.04H293.233V139.073H293.267V139.107H293.3V139.14H293.333V139.173H293.4V139.207H293.433V139.24H293.467V139.273H293.5V139.307H293.567V139.34H293.6V139.373H293.633V139.407H293.667V139.44H293.7V139.473H293.733V139.507H293.767V139.54H293.8V139.573H293.833V139.607H293.867V139.64H293.9V139.673H293.933V139.707H293.967V139.773H294V139.807H294.033V139.84H294.067V139.873H294.1V139.907H294.133V139.94H294.167V139.973H294.2V140.007H294.233V140.073H294.267V140.107H294.3V140.173H294.333V140.207H294.367V140.273H294.4V140.307H294.433V140.373H294.467V140.407H294.5V140.473H294.533V140.507H294.567V140.573H294.6V140.607H294.633V140.673H294.667V140.74H294.7V140.807H294.733V140.873H294.767V140.907H294.8V140.973H294.833V141.04H294.867V141.107H294.9V141.173H294.933V141.273H294.967V141.373H295V141.44H295.033V141.54H295.067V141.607H295.1V141.707H295.133V141.773H295.167V141.873H295.2V141.973H295.233V142.04H295.267V142.14H295.3V142.207H295.333V142.307H295.367V142.407H295.4V142.473H295.433V142.573H295.467V142.64H295.5V142.74H295.533V142.84H295.567V142.907H295.6V143.007H295.633V143.073H295.667V143.173H295.7V143.273H295.733V143.34H295.767V143.44H295.8V143.507H295.833V143.607H295.867V143.707H295.9V143.773H295.933V143.873H295.967V143.94H296V144.04H296.033V144.14H296.067V144.207H296.1V144.307H296.133V144.373H296.167V144.473H296.2V144.573H296.233V144.64H296.267V144.74H296.3V144.807H296.333V144.907H296.367V145.007H296.4V145.073H296.433V145.173H296.467V145.24H296.5V145.34H296.533V145.44H296.567V145.507H296.6V145.607H296.633V145.673H296.667V145.773H296.7V145.873H296.733V145.94H296.767V146.04H296.8V146.107H296.833V146.207H296.867V146.307H296.9V146.373H296.933V146.473H296.967V146.54H297V146.64H297.033V146.707H297.067V146.807H297.1V146.907H297.133V146.973H297.167V147.073H297.2V147.14H297.233V147.24H297.267V147.34H297.3V147.407H297.333V147.507H297.367V147.573H297.4V147.673H297.433V147.773H297.467V147.84H297.5V147.94H297.533V148.007H297.567V148.107H297.6V148.207H297.633V148.273H297.667V148.373H297.7V148.44H297.733V148.54H297.767V148.64H297.8V148.707H297.833V148.807H297.867V148.873H297.9V148.973H297.933V149.073H297.967V149.14H298V149.24H298.033V149.307H298.067V149.407H298.1V149.507H298.133V149.573H298.167V149.673H298.2V149.74H298.233V149.84H298.267V149.94H298.3V150.007H298.333V150.107H298.367V150.173H298.4V150.273H298.433V150.373H298.467V150.44H298.5V150.54H298.533V150.607H298.567V150.707H298.6V150.807H298.633V150.873H298.667V150.973H298.7V151.04H298.733V151.14H298.767V151.24H298.8V151.307H298.833V151.407H298.867V151.473H298.9V151.573H298.933V151.64H298.967V151.74H299V151.84H299.033V151.907H299.067V152.007H299.1V152.073H299.133V152.173H299.167V152.273H299.2V152.34H299.233V152.44H299.267V152.507H299.3V152.607H299.333V152.707H299.367V152.773H299.4V152.873H299.433V152.94H299.467V153.04H299.5V153.14H299.533V153.207H299.567V153.307H299.6V153.373H299.633V153.473H299.667V153.573H299.7V153.64H299.733V153.74H299.767V153.807H299.8V153.907H299.833V154.007H299.867V154.073H299.9V154.173H299.933V154.24H299.967V154.34H300V154.44H300.033V154.507H300.067V154.607H300.1V154.673H300.133V154.773H300.167V154.873H300.2V154.94H300.233V155.04H300.267V155.107H300.3V155.207H300.333V155.307H300.367V155.373H300.4V155.473H300.433V155.54H300.467V155.64H300.5V155.74H300.533V155.807H300.567V155.907H300.6V155.973H300.633V156.073H300.667V156.173H300.7V156.24H300.733V156.34H300.767V156.407H300.8V156.507H300.833V156.607H300.867V156.673H300.9V156.773H300.933V156.84H300.967V156.94H301V157.007H301.033V157.107H301.067V157.207H301.1V157.273H301.133V157.373H301.167V157.44H301.2V157.54H301.233V157.64H301.267V157.707H301.3V157.807H301.333V157.873H301.367V157.973H301.4V158.073H301.433V158.14H301.467V158.24H301.5V158.307H301.533V158.407H301.567V158.507H301.6V158.573H301.633V158.673H301.667V158.74H301.7V158.84H301.733V158.94H301.767V159.007H301.8V159.107H301.833V159.173H301.867V159.273H301.9V159.373H301.933V159.44H301.967V159.54H302V159.607H302.033V159.707H302.067V159.807H302.1V159.873H302.133V159.973H302.167V160.04H302.2V160.14H302.233V160.24H302.267V160.307H302.3V160.407H302.333V160.473H302.367V160.573H302.4V160.673H302.433V160.74H302.467V160.84H302.5V160.907H302.533V161.007H302.567V161.107H302.6V161.173H302.633V161.273H302.667V161.34H302.7V161.44H302.733V161.54H302.767V161.607H302.8V161.707H302.833V161.773H302.867V161.873H302.9V161.94H302.933V162.04H302.967V162.14H303V162.207H303.033V162.307H303.067V162.373H303.1V162.473H303.133V162.573H303.167V162.64H303.2V162.74H303.233V162.807H303.267V162.907H303.3V163.007H303.333V163.073H303.367V163.173H303.4V163.24H303.433V163.34H303.467V163.44H303.5V163.507H303.533V163.607H303.567V163.673H303.6V163.773H303.633V163.873H303.667V163.94H303.7V164.04H303.733V164.107H303.767V164.207H303.8V164.307H303.833V164.373H303.867V164.473H303.9V164.54H303.933V164.64H303.967V164.74H304V164.807H304.033V164.907H304.067V164.973H304.1V165.073H304.133V165.173H304.167V165.24H304.2V165.34H304.233V165.407H304.267V165.507H304.3V165.607H304.333V165.673H304.367V165.773H304.4V165.84H304.433V165.94H304.467V166.04H304.5V166.107H304.533V166.207H304.567V166.273H304.6V166.373H304.633V166.473H304.667V166.54H304.7V166.64H304.733V166.707H304.767V166.807H304.8V166.873H304.833V166.973H304.867V167.073H304.9V167.14H304.933V167.24H304.967V167.307H305V167.407H305.033V167.507H305.067V167.573H305.1V167.673H305.133V167.74H305.167V167.84H305.2V167.94H305.233V168.007H305.267V168.107H305.3V168.173H305.333V168.273H305.367V168.373H305.4V168.44H305.433V168.54H305.467V168.607H305.5V168.707H305.533V168.807H305.567V168.873H305.6V168.973H305.633V169.04H305.667V169.14H305.7V169.24H305.733V169.307H305.767V169.407H305.8V169.473H305.833V169.573H305.867V169.673H305.9V169.74H305.933V169.84H305.967V169.907H306V170.007H306.033V170.107H306.067V170.173H306.1V170.273H306.133V170.34H306.167V170.44H306.2V170.54H306.233V170.607H306.267V170.707H306.3V170.773H306.333V170.873H306.367V170.973H306.4V171.04H306.433V171.14H306.467V171.207H306.5V171.307H306.533V171.407H306.567V171.473H306.6V171.573H306.633V171.64H306.667V171.74H306.7V171.84H306.733V171.907H306.767V172.007H306.8V172.073H306.833V172.173H306.867V172.24H306.9V172.34H306.933V172.44H306.967V172.507H307V172.607H307.033V172.673H307.067V172.773H307.1V172.873H307.133V172.94H307.167V173.04H307.2V173.107H307.233V173.207H307.267V173.307H307.3V173.373H307.333V173.473H307.367V173.54H307.4V173.64H307.433V173.74H307.467V173.807H307.5V173.907H307.533V173.973H307.567V174.073H307.6V174.173H307.633V174.24H307.667V174.34H307.7V174.407H307.733V174.507H307.767V174.607H307.8V174.673H307.833V174.773H307.867V174.84H307.9V174.94H307.933V175.04H307.967V175.107H308V175.207H308.033V175.273H308.067V175.373H308.1V175.473H308.133V175.54H308.167V175.64H308.2V175.707H308.233V175.807H308.267V175.907H308.3V175.973H308.333V176.073H308.367V176.14H308.4V176.24H308.433V176.34H308.467V176.407H308.5V176.507H308.533V176.573H308.567V176.673H308.6V176.773H308.633V176.84H308.667V176.94H308.7V177.007H308.733V177.107H308.767V177.173H308.8V177.273H308.833V177.373H308.867V177.44H308.9V177.54H308.933V177.607H308.967V177.707H309V177.807H309.033V177.873H309.067V177.973H309.1V178.04H309.133V178.14H309.167V178.24H309.2V178.307H309.233V178.407H309.267V178.473H309.3V178.573H309.333V178.673H309.367V178.74H309.4V178.84H309.433V178.907H309.467V179.007H309.5V179.107H309.533V179.173H309.567V179.273H309.6V179.34H309.633V179.44H309.667V179.54H309.7V179.607H309.733V179.707H309.767V179.773H309.8V179.873H309.833V179.973H309.867V180.04H309.9V180.14H309.933V180.207H309.967V180.307H310V180.407H310.033V180.473H310.067V180.573H310.1V180.64H310.133V180.74H310.167V180.84H310.2V180.907H310.233V181.007H310.267V181.073H310.3V181.173H310.333V181.273H310.367V181.34H310.4V181.44H310.433V181.507H310.467V181.607H310.5V181.707H310.533V181.773H310.567V181.873H310.6V181.94H310.633V182.04H310.667V182.107H310.7V182.207H310.733V182.307H310.767V182.373H310.8V182.473H310.833V182.54H310.867V182.64H310.9V182.74H310.933V182.807H310.967V182.907H311V182.973H311.033V183.073H311.067V183.173H311.1V183.24H311.133V183.34H311.167V183.407H311.2V183.507H311.233V183.607H311.267V183.673H311.3V183.773H311.333V183.84H311.367V183.94H311.4V184.04H311.433V184.107H311.467V184.207H311.5V184.273H311.533V184.373H311.567V184.473H311.6V184.54H311.633V184.64H311.667V184.707H311.7V184.807H311.733V184.907H311.767V184.973H311.8V185.073H311.833V185.14H311.867V185.24H311.9V185.34H311.933V185.407H311.967V185.507H312V185.573H312.033V185.673H312.067V185.773H312.1V185.84H312.133V185.94H312.167V186.007H312.2V186.107H312.233V186.207H312.267V186.273H312.3V186.373H312.333V186.44H312.367V186.54H312.4V186.64H312.433V186.707H312.467V186.807H312.5V186.873H312.533V186.973H312.567V187.073H312.6V187.14H312.633V187.24H312.667V187.307H312.7V187.407H312.733V187.473H312.767V187.573H312.8V187.673H312.833V187.74H312.867V187.84H312.9V187.907H312.933V188.007H312.967V188.107H313V188.173H313.033V188.273H313.067V188.34H313.1V188.44H313.133V188.54H313.167V188.607H313.2V188.707H313.233V188.773H313.267V188.873H313.3V188.973H313.333V189.04H313.367V189.14H313.4V189.207H313.433V189.307H313.467V189.407H313.5V189.473H313.533V189.573H313.567V189.64H313.6V189.74H313.633V189.84H313.667V189.907H313.7V190.007H313.733V190.073H313.767V190.173H313.8V190.273H313.833V190.34H313.867V190.44H313.9V190.507H313.933V190.607H313.967V190.707H314V190.773H314.033V190.873H314.067V190.94H314.1V191.04H314.133V191.14H314.167V191.207H314.2V191.307H314.233V191.373H314.267V191.473H314.3V191.573H314.333V191.64H314.367V191.74H314.4V191.807H314.433V191.907H314.467V192.007H314.5V192.073H314.533V192.173H314.567V192.24H314.6V192.34H314.633V192.407H314.667V192.507H314.7V192.607H314.733V192.673H314.767V192.773H314.8V192.84H314.833V192.94H314.867V193.04H314.9V193.107H314.933V193.207H314.967V193.273H315V193.373H315.033V193.473H315.067V193.54H315.1V193.64H315.133V193.707H315.167V193.807H315.2V193.907H315.233V193.973H315.267V194.073H315.3V194.14H315.333V194.24H315.367V194.34H315.4V194.407H315.433V194.507H315.467V194.573H315.5V194.673H315.533V194.773H315.567V194.84H315.6V194.94H315.633V195.007H315.667V195.107H315.7V195.207H315.733V195.273H315.767V195.373H315.8V195.44H315.833V195.54H315.867V195.64H315.9V195.707H315.933V195.807H315.967V195.873H316V195.973H316.033V196.073H316.067V196.14H316.1V196.24H316.133V196.307H316.167V196.407H316.2V196.507H316.233V196.573H316.267V196.673H316.3V196.74H316.333V196.84H316.367V196.94H316.4V197.007H316.433V197.107H316.467V197.173H316.5V197.273H316.533V197.34H316.567V197.44H316.6V197.54H316.633V197.607H316.667V197.707H316.7V197.773H316.733V197.873H316.767V197.973H316.8V198.04H316.833V198.14H316.867V198.207H316.9V198.307H316.933V198.407H316.967V198.473H317V198.573H317.033V198.64H317.067V198.74H317.1V198.84H317.133V198.907H317.167V199.007H317.2V199.073H317.233V199.173H317.267V199.273H317.3V199.34H317.333V199.44H317.367V199.507H317.4V199.607H317.433V199.707H317.467V199.773H317.5V199.873H317.533V199.94H317.567V200.04H317.6V200.14H317.633V200.207H317.667V200.307H317.7V200.373H317.733V200.473H317.767V200.573H317.8V200.64H317.833V200.74H317.867V200.807H317.9V200.907H317.933V201.007H317.967V201.073H318V201.173H318.033V201.24H318.067V201.34H318.1V201.44H318.133V201.507H318.167V201.607H318.2V201.673H318.233V201.773H318.267V201.873H318.3V201.94H318.333V202.04H318.367V202.107H318.4V202.207H318.433V202.273H318.467V202.373H318.5V202.473H318.533V202.54H318.567V202.64H318.6V202.707H318.633V202.807H318.667V202.907H318.7V202.973H318.733V203.073H318.767V203.14H318.8V203.24H318.833V203.34H318.867V203.407H318.9V203.507H318.933V203.573H318.967V203.673H319V203.773H319.033V203.84H319.067V203.94H319.1V204.007H319.133V204.107H319.167V204.207H319.2V204.273H319.233V204.373H319.267V204.44H319.3V204.54H319.333V204.64H319.367V204.707H319.4V204.807H319.433V204.873H319.467V204.973H319.5V205.073H319.533V205.14H319.567V205.24H319.6V205.307H319.633V205.407H319.667V205.507H319.7V205.573H319.733V205.673H319.767V205.74H319.8V205.84H319.833V205.94H319.867V206.007H319.9V206.107H319.933V206.173H319.967V206.273H320V206.373H320.033V206.44H320.067V206.54H320.1V206.607H320.133V206.707H320.167V206.807H320.2V206.873H320.233V206.973H320.267V207.04H320.3V207.14H320.333V207.24H320.367V207.307H320.4V207.407H320.433V207.473H320.467V207.573H320.5V207.64H320.533V207.74H320.567V207.84H320.6V207.907H320.633V208.007H320.667V208.073H320.7V208.173H320.733V208.273H320.767V208.34H320.8V208.44H320.833V208.507H320.867V208.607H320.9V208.707H320.933V208.773H320.967V208.873H321V208.94H321.033V209.04H321.067V209.14H321.1V209.207H321.133V209.307H321.167V209.373H321.2V209.473H321.233V209.573H321.267V209.64H321.3V209.74H321.333V209.807H321.367V209.907H321.4V210.007H321.433V210.073H321.467V210.173H321.5V210.24H321.533V210.34H321.567V210.44H321.6V210.507H321.633V210.607H321.667V210.673H321.7V210.773H321.733V210.873H321.767V210.94H321.8V211.04H321.833V211.107H321.867V211.207H321.9V211.307H321.933V211.373H321.967V211.473H322V211.54H322.033V211.64H322.067V211.74H322.1V211.807H322.133V211.907H322.167V211.973H322.2V212.073H322.233V212.173H322.267V212.24H322.3V212.34H322.333V212.407H322.367V212.507H322.4V212.573H322.433V212.673H322.467V212.773H322.5V212.84H322.533V212.94H322.567V213.007H322.6V213.107H322.633V213.207H322.667V213.273H322.7V213.373H322.733V213.44H322.767V213.54H322.8V213.64H322.833V213.707H322.867V213.807H322.9V213.873H322.933V213.973H322.967V214.073H323V214.14H323.033V214.24H323.067V214.307H323.1V214.407H323.133V214.507H323.167V214.573H323.2V214.673H323.233V214.74H323.267V214.84H323.3V214.94H323.333V215.007H323.367V215.107H323.4V215.173H323.433V215.273H323.467V215.373H323.5V215.44H323.533V215.54H323.567V215.607H323.6V215.707H323.633V215.807H323.667V215.873H323.7V215.973H323.733V216.04H323.767V216.14H323.8V216.24H323.833V216.307H323.867V216.407H323.9V216.473H323.933V216.573H323.967V216.673H324V216.74H324.033V216.84H324.067V216.907H324.1V217.007H324.133V217.107H324.167V217.173H324.2V217.273H324.233V217.34H324.267V217.44H324.3V217.507H324.333V217.607H324.367V217.707H324.4V217.773H324.433V217.873H324.467V217.94H324.5V218.04H324.533V218.14H324.567V218.207H324.6V218.307H324.633V218.373H324.667V218.473H324.7V218.573H324.733V218.64H324.767V218.74H324.8V218.807H324.833V218.907H324.867V219.007H324.9V219.073H324.933V219.173H324.967V219.24H325V219.34H325.033V219.44H325.067V219.507H325.1V219.607H325.133V219.673H325.167V219.773H325.2V219.873H325.233V219.94H325.267V220.04H325.3V220.107H325.333V220.207H325.367V220.307H325.4V220.373H325.433V220.473H325.467V220.54H325.5V220.64H325.533V220.74H325.567V220.807H325.6V220.907H325.633V220.973H325.667V221.073H325.7V221.173H325.733V221.24H325.767V221.34H325.8V221.407H325.833V221.507H325.867V221.607H325.9V221.673H325.933V221.773H325.967V221.84H326V221.94H326.033V222.04H326.067V222.107H326.1V222.207H326.133V222.273H326.167V222.373H326.2V222.473H326.233V222.54H326.267V222.64H326.3V222.707H326.333V222.807H326.367V222.873H326.4V222.973H326.433V223.073H326.467V223.14H326.5V223.24H326.533V223.307H326.567V223.407H326.6V223.507H326.633V223.573H326.667V223.673H326.7V223.74H326.733V223.84H326.767V223.94H326.8V224.007H326.833V224.107H326.867V224.173H326.9V224.273H326.933V224.373H326.967V224.44H327V224.54H327.033V224.607H327.067V224.707H327.1V224.807H327.133V224.873H327.167V224.973H327.2V225.04H327.233V225.14H327.267V225.24H327.3V225.307H327.333V225.407H327.367V225.473H327.4V225.573H327.433V225.673H327.467V225.74H327.5V225.84H327.533V225.907H327.567V226.007H327.6V226.107H327.633V226.173H327.667V226.273H327.7V226.34H327.733V226.44H327.767V226.54H327.8V226.607H327.833V226.707H327.867V226.773H327.9V226.873H327.933V226.973H327.967V227.04H328V227.14H328.033V227.207H328.067V227.307H328.1V227.407H328.133V227.473H328.167V227.573H328.2V227.64H328.233V227.74H328.267V227.807H328.3V227.907H328.333V228.007H328.367V228.073H328.4V228.173H328.433V228.24H328.467V228.34H328.5V228.44H328.533V228.507H328.567V228.607H328.6V228.673H328.633V228.773H328.667V228.873H328.7V228.94H328.733V229.04H328.767V229.107H328.8V229.207H328.833V229.307H328.867V229.373H328.9V229.473H328.933V229.54H328.967V229.64H329V229.74H329.033V229.807H329.067V229.907H329.1V229.973H329.133V230.073H329.167V230.173H329.2V230.24H329.233V230.34H329.267V230.407H329.3V230.507H329.333V230.607H329.367V230.673H329.4V230.773H329.433V230.84H329.467V230.94H329.5V231.04H329.533V231.107H329.567V231.207H329.6V231.273H329.633V231.373H329.667V231.473H329.7V231.54H329.733V231.64H329.767V231.707H329.8V231.807H329.833V231.907H329.867V231.973H329.9V232.073H329.933V232.14H329.967V232.24H330V232.34H330.033V232.407H330.067V232.507H330.1V232.573H330.133V232.673H330.167V232.74H330.2V232.84H330.233V232.94H330.267V233.007H330.3V233.107H330.333V233.173H330.367V233.273H330.4V233.373H330.433V233.44H330.467V233.54H330.5V233.607H330.533V233.707H330.567V233.807H330.6V233.873H330.633V233.973H330.667V234.04H330.7V234.14H330.733V234.24H330.767V234.307H330.8V234.407H330.833V234.473H330.867V234.573H330.9V234.673H330.933V234.74H330.967V234.84H331V234.907H331.033V235.007H331.067V235.107H331.1V235.173H331.133V235.273H331.167V235.34H331.2V235.44H331.233V235.54H331.267V235.607H331.3V235.707H331.333V235.773H331.367V235.873H331.4V235.973H331.433V236.04H331.467V236.14H331.5V236.207H331.533V236.307H331.567V236.407H331.6V236.473H331.633V236.573H331.667V236.64H331.7V236.74H331.733V236.84H331.767V236.907H331.8V237.007H331.833V237.073H331.867V237.173H331.9V237.273H331.933V237.34H331.967V237.44H332V237.507H332.033V237.607H332.067V237.707H332.1V237.773H332.133V237.873H332.167V237.94H332.2V238.04H332.233V238.107H332.267V238.207H332.3V238.307H332.333V238.373H332.367V238.473H332.4V238.54H332.433V238.64H332.467V238.74H332.5V238.807H332.533V238.907H332.567V238.973H332.6V239.073H332.633V239.173H332.667V239.24H332.7V239.34H332.733V239.407H332.767V239.507H332.8V239.607H332.833V239.673H332.867V239.773H332.9V239.84H332.933V239.94H332.967V240.04H333V240.107H333.033V240.207H333.067V240.273H333.1V240.373H333.133V240.473H333.167V240.54H333.2V240.64H333.233V240.707H333.267V240.807H333.3V240.907H333.333V240.973H333.367V241.073H333.4V241.14H333.433V241.24H333.467V241.34H333.5V241.407H333.533V241.507H333.567V241.573H333.6V241.673H333.633V241.773H333.667V241.84H333.7V241.94H333.733V242.007H333.767V242.107H333.8V242.207H333.833V242.273H333.867V242.373H333.9V242.44H333.933V242.54H333.967V242.64H334V242.707H334.033V242.807H334.067V242.873H334.1V242.973H334.133V243.04H334.167V243.14H334.2V243.24H334.233V243.307H334.267V243.407H334.3V243.473H334.333V243.573H334.367V243.673H334.4V243.74H334.433V243.84H334.467V243.907H334.5V244.007H334.533V244.107H334.567V244.173H334.6V244.273H334.633V244.34H334.667V244.44H334.7V244.54H334.733V244.607H334.767V244.707H334.8V244.773H334.833V244.873H334.867V244.973H334.9V245.04H334.933V245.14H334.967V245.207H335V245.307H335.033V245.407H335.067V245.473H335.1V245.573H335.133V245.64H335.167V245.74H335.2V245.84H335.233V245.907H335.267V246.007H335.3V246.073H335.333V246.173H335.367V246.273H335.4V246.34H335.433V246.44H335.467V246.507H335.5V246.607H335.533V246.707H335.567V246.773H335.6V246.873H335.633V246.94H335.667V247.04H335.7V247.14H335.733V247.207H335.767V247.307H335.8V247.373H335.833V247.473H335.867V247.573H335.9V247.64H335.933V247.74H335.967V247.807H336V247.907H336.033V247.973H336.067V248.073H336.1V248.173H336.133V248.24H336.167V248.34H336.2V248.407H336.233V248.507H336.267V248.607H336.3V248.673H336.333V248.773H336.367V248.84H336.4V248.94H336.433V249.04H336.467V249.107H336.5V249.207H336.533V249.273H336.567V249.373H336.6V249.473H336.633V249.54H336.667V249.64H336.7V249.707H336.733V249.807H336.767V249.907H336.8V249.973H336.833V250.073H336.867V250.14H336.9V250.24H336.933V250.34H336.967V250.407H337V250.507H337.033V250.573H278.7V250.607H277.567V250.64H277.033V250.673H276.467V250.707H275.967V250.74H275.6V250.773H275.267V250.807H274.933V250.84H274.567V250.873H274.3V250.907H274.067V250.94H273.8V250.973H273.567V251.007H273.3V251.04H273.067V251.073H272.867V251.107H272.667V251.14H272.467V251.173H272.267V251.207H272.067V251.24H271.867V251.273H271.667V251.307H271.5V251.34H271.333V251.373H271.167V251.407H271V251.44H270.833V251.473H270.667V251.507H270.533V251.54H270.367V251.573H270.2V251.607H270.033V251.64H269.9V251.673H269.767V251.707H269.633V251.74H269.5V251.773H269.367V251.807H269.2V251.84H269.067V251.873H268.933V251.907H268.8V251.94H268.667V251.973H268.533V252.007H268.4V252.04H268.3V252.073H268.167V252.107H268.067V252.14H267.933V252.173H267.8V252.207H267.7V252.24H267.567V252.273H267.467V252.307H267.333V252.34H267.233V252.373H267.133V252.407H267V252.44H266.9V252.473H266.8V252.507H266.667V252.54H266.567V252.573H266.467V252.607H266.367V252.64H266.267V252.673H266.167V252.707H266.067V252.74H266V252.773H265.9V252.807H265.8V252.84H265.7V252.873H265.6V252.907H265.5V252.94H265.4V252.973H265.3V253.007H265.2V253.04H265.1V253.073H265.033V253.107H264.933V253.14H264.833V253.173H264.767V253.207H264.667V253.24H264.6V253.273H264.5V253.307H264.4V253.34H264.333V253.373H264.233V253.407H264.133V253.44H264.067V253.473H263.967V253.507H263.9V253.54H263.8V253.573H263.7V253.607H263.633V253.64H263.533V253.673H263.433V253.707H263.367V253.74H263.3V253.773H263.2V253.807H263.133V253.84H263.067V253.873H262.967V253.907H262.9V253.94H262.833V253.973H262.767V254.007H262.667V254.04H262.6V254.073H262.533V254.107H262.433V254.14H262.367V254.173H262.3V254.207H262.233V254.24H262.133V254.273H262.067V254.307H262V254.34H261.9V254.373H261.833V254.407H261.767V254.44H261.667V254.473H261.6V254.507H261.533V254.54H261.467V254.573H261.4V254.607H261.333V254.64H261.267V254.673H261.2V254.707H261.133V254.74H261.067V254.773H261V254.807H260.933V254.84H260.867V254.873H260.8V254.907H260.733V254.94H260.667V254.973H260.6V255.007H260.533V255.04H260.467V255.073H260.4V255.107H260.333V255.14H260.233V255.173H260.167V255.207H260.1V255.24H260.033V255.273H259.967V255.307H259.9V255.34H259.833V255.373H259.767V255.407H259.733V255.44H259.667V255.473H259.6V255.507H259.533V255.54H259.467V255.573H259.433V255.607H259.367V255.64H259.3V255.673H259.233V255.707H259.167V255.74H259.1V255.773H259.067V255.807H259V255.84H258.933V255.873H258.867V255.907H258.8V255.94H258.767V255.973H258.7V256.007H258.633V256.04H258.567V256.073H258.5V256.107H258.467V256.14H258.4V256.173H258.333V256.207H258.267V256.24H258.2V256.273H258.133V256.307H258.1V256.34H258.033V256.373H258V256.407H257.933V256.44H257.867V256.473H257.833V256.507H257.767V256.54H257.7V256.573H257.667V256.607H257.6V256.64H257.533V256.673H257.5V256.707H257.433V256.74H257.4V256.773H257.333V256.807H257.267V256.84H257.233V256.873H257.167V256.907H257.1V256.94H257.067V256.973H257V257.007H256.933V257.04H256.9V257.073H256.833V257.107H256.8V257.14H256.733V257.173H256.667V257.207H256.633V257.24H256.567V257.273H256.5V257.307H256.467V257.34H256.4V257.373H256.367V257.407H256.3V257.44H256.267V257.473H256.2V257.507H256.167V257.54H256.1V257.573H256.067V257.607H256V257.64H255.967V257.673H255.933V257.707H255.867V257.74H255.833V257.773H255.767V257.807H255.733V257.84H255.667V257.873H255.633V257.907H255.567V257.94H255.533V257.973H255.467V258.007H255.433V258.04H255.367V258.073H255.333V258.107H255.267V258.14H255.233V258.173H255.167V258.207H255.133V258.24H255.067V258.273H255.033V258.307H254.967V258.34H254.933V258.373H254.867V258.407H254.833V258.44H254.8V258.473H254.733V258.507H254.7V258.54H254.667V258.573H254.6V258.607H254.567V258.64H254.533V258.673H254.467V258.707H254.433V258.74H254.367V258.773H254.333V258.807H254.3V258.84H254.233V258.873H254.2V258.907H254.167V258.94H254.1V258.973H254.067V259.007H254.033V259.04H253.967V259.073H253.933V259.107H253.867V259.14H253.833V259.173H253.8V259.207H253.733V259.24H253.7V259.273H253.667V259.307H253.6V259.34H253.567V259.373H253.533V259.407H253.5V259.44H253.433V259.473H253.4V259.507H253.367V259.54H253.3V259.573H253.267V259.607H253.233V259.64H253.2V259.673H253.133V259.707H253.1V259.74H253.067V259.773H253V259.807H252.967V259.84H252.933V259.873H252.867V259.907H252.833V259.94H252.8V259.973H252.733V260.007H252.7V260.04H252.667V260.073H252.633V260.107H252.567V260.14H252.533V260.173H252.5V260.207H252.467V260.24H252.4V260.273H252.367V260.307H252.333V260.34H252.3V260.373H252.267V260.407H252.2V260.44H252.167V260.473H252.133V260.507H252.1V260.54H252.033V260.573H252V260.607H251.967V260.64H251.933V260.673H251.9V260.707H251.867V260.74H251.833V260.773H251.8V260.807H251.733V260.84H251.7V260.873H251.667V260.907H251.633V260.94H251.6V260.973H251.567V261.007H251.533V261.04H251.5V261.073H251.433V261.107H251.4V261.14H251.367V261.173H251.333V261.207H251.3V261.24H251.267V261.273H251.233V261.307H251.167V261.34H251.133V261.373H251.1V261.407H251.067V261.44H251.033V261.473H251V261.507H250.967V261.54H250.933V261.573H250.867V261.607H250.833V261.64H250.8V261.673H250.767V261.707H250.733V261.74H250.7V261.773H250.667V261.807H250.633V261.84H250.6V261.873H250.533V261.907H250.5V261.94H250.467V261.973H250.433V262.007H250.4V262.04H250.367V262.073H250.333V262.107H250.3V262.14H250.267V262.173H250.233V262.207H250.2V262.24H250.167V262.273H250.133V262.307H250.1V262.34H250.067V262.373H250.033V262.407H250V262.44H249.967V262.473H249.933V262.507H249.9V262.54H249.867V262.573H249.833V262.607H249.8V262.64H249.767V262.673H249.733V262.707H249.7V262.74H249.667V262.773H249.633V262.807H249.6V262.84H249.567V262.873H249.533V262.907H249.5V262.94H249.467V262.973H249.433V263.007H249.4V263.04H249.367V263.073H249.333V263.107H249.3V263.14H249.267V263.173H249.233V263.207H249.2V263.24H249.167V263.273H249.133V263.307H249.1V263.34H249.033V263.373H249V263.407H248.967V263.44H248.933V263.473H248.9V263.507H248.867V263.54H248.833V263.573H248.8V263.607H248.767V263.64H248.733V263.707H248.7V263.74H248.667V263.773H248.633V263.807H248.6V263.84H248.567V263.873H248.533V263.907H248.5V263.94H248.467V263.973H248.433V264.007H248.4V264.073H248.367V264.107H248.333V264.14H248.3V264.173H248.267V264.207H248.233V264.24H248.2V264.273H248.167V264.307H248.133V264.34H248.1V264.373H248.067V264.44H248.033V264.473H248V264.507H247.967V264.54H247.933V264.573H247.9V264.607H247.867V264.64H247.833V264.673H247.8V264.707H247.767V264.74H247.733V264.807H247.7V264.84H247.667V264.873H247.633V264.907H247.6V264.94H247.567V264.973H247.533V265.007H247.5V265.04H247.467V265.073H247.433V265.14H247.4V265.173H247.367V265.207H247.333V265.24H247.3V265.273H247.267V265.307H247.233V265.34H247.2V265.373H247.167V265.407H247.133V265.44H247.1V265.507H247.067V265.54H247.033V265.573H247V265.607H246.967V265.64H246.933V265.707H246.9V265.74H246.867V265.773H246.833V265.807H246.8V265.873H246.767V265.907H246.733V265.94H246.7V265.973H246.667V266.04H246.633V266.073H246.6V266.107H246.567V266.14H246.533V266.207H246.5V266.24H246.467V266.273H246.433V266.307H246.4V266.373H246.367V266.407H246.333V266.44H246.3V266.473H246.267V266.54H246.233V266.573H246.2V266.607H246.167V266.64H246.133V266.707H246.1V266.74H246.067V266.773H246.033V266.807H246V266.873H245.967V266.907H245.933V266.94H245.9V266.973H245.867V267.007H245.833V267.073H245.8V267.107H245.767V267.14H245.733V267.173H245.7V267.24H245.667V267.273H245.633V267.307H245.6V267.34H245.567V267.407H245.533V267.44H245.5V267.473H245.467V267.507H245.433V267.573H245.4V267.607H245.367V267.673H245.333V267.707H245.3V267.74H245.267V267.807H245.233V267.84H245.2V267.907H245.167V267.94H245.133V267.973H245.1V268.04H245.067V268.073H245.033V268.14H245V268.173H244.967V268.24H244.933V268.273H244.9V268.307H244.867V268.373H244.833V268.407H244.8V268.473H244.767V268.507H244.733V268.54H244.7V268.607H244.667V268.64H244.633V268.707H244.6V268.74H244.567V268.773H244.533V268.84H244.5V268.873H244.467V268.94H244.433V268.973H244.4V269.04H244.367V269.073H244.333V269.107H244.3V269.173H244.267V269.207H244.233V269.273H244.2V269.307H244.167V269.34H244.133V269.407H244.1V269.44H244.067V269.507H244.033V269.54H244V269.573H243.967V269.64H243.933V269.707H243.9V269.74H243.867V269.807H243.833V269.84H243.8V269.907H243.767V269.973H243.733V270.007H243.7V270.073H243.667V270.107H243.633V270.173H243.6V270.24H243.567V270.273H243.533V270.34H243.5V270.373H243.467V270.44H243.433V270.507H243.4V270.54H243.367V270.607H243.333V270.64H243.3V270.707H243.267V270.773H243.233V270.807H243.2V270.873H243.167V270.94H243.133V270.973H243.1V271.04H243.067V271.073H243.033V271.14H243V271.207H242.967V271.24H242.933V271.307H242.9V271.34H242.867V271.407H242.833V271.473H242.8V271.507H242.767V271.573H242.733V271.607H242.7V271.673H242.667V271.74H242.633V271.773H242.6V271.84H242.567V271.907H242.533V271.973H242.5V272.007H242.467V272.073H242.433V272.14H242.4V272.207H242.367V272.273H242.333V272.34H242.3V272.407H242.267V272.44H242.233V272.507H242.2V272.573H242.167V272.64H242.133V272.707H242.1V272.773H242.067V272.84H242.033V272.873H242V272.94H241.967V273.007H241.933V273.073H241.9V273.14H241.867V273.207H241.833V273.273H241.8V273.307H241.767V273.373H241.733V273.44H241.7V273.507H241.667V273.573H241.633V273.64H241.6V273.707H241.567V273.74H241.533V273.807H241.5V273.873H241.467V273.94H241.433V274.007H241.4V274.073H241.367V274.14H241.333V274.207H241.3V274.273H241.267V274.34H241.233V274.407H241.2V274.473H241.167V274.54H241.133V274.607H241.1V274.673H241.067V274.74H241.033V274.84H241V274.907H240.967V274.973H240.933V275.04H240.9V275.107H240.867V275.173H240.833V275.24H240.8V275.307H240.767V275.373H240.733V275.473H240.7V275.54H240.667V275.607H240.633V275.673H240.6V275.74H240.567V275.807H240.533V275.873H240.5V275.94H240.467V276.04H240.433V276.107H240.4V276.207H240.367V276.273H240.333V276.34H240.3V276.44H240.267V276.507H240.233V276.573H240.2V276.673H240.167V276.74H240.133V276.84H240.1V276.907H240.067V276.973H240.033V277.073H240V277.14H239.967V277.24H239.933V277.307H239.9V277.407H239.867V277.473H239.833V277.573H239.8V277.64H239.767V277.74H239.733V277.84H239.7V277.907H239.667V278.007H239.633V278.107H239.6V278.173H239.567V278.273H239.533V278.373H239.5V278.473H239.467V278.54H239.433V278.64H239.4V278.74H239.367V278.807H239.333V278.907H239.3V279.007H239.267V279.073H239.233V279.173H239.2V279.273H239.167V279.34H239.133V279.44H239.1V279.507H239.067V279.607H239.033V279.707H239V279.773H238.967V279.873H238.933V279.94H238.9V280.04H238.867V280.14H238.833V280.207H238.8V280.307H238.767V280.373H238.733V280.473H238.7V280.573H238.667V280.64H238.633V280.74H238.6V280.807H238.567V280.907H238.533V281.007H238.5V281.073H238.467V281.173H238.433V281.24H238.4V281.34H238.367V281.407H238.333V281.507H238.3V281.607H238.267V281.673H238.233V281.773H238.2V281.84H238.167V281.94H238.133V282.04H238.1V282.107H238.067V282.207H238.033V282.273H238V282.373H237.967V282.473H237.933V282.54H237.9V282.64H237.867V282.707H237.833V282.807H237.8V282.907H237.767V282.973H237.733V283.073H237.7V283.14H237.667V283.24H237.633V283.307H237.6V283.407H237.567V283.507H237.533V283.573H237.5V283.673H237.467V283.74H237.433V283.84H237.4V283.94H237.367V284.007H237.333V284.107H237.3V284.173H237.267V284.273H237.233V284.373H237.2V284.44H237.167V284.54H237.133V284.607H237.1V284.707H237.067V284.807H237.033V284.873H237V284.973H236.967V285.04H236.933V285.14H236.9V285.24H236.867V285.307H236.833V285.407H236.8V285.473H236.767V285.573H236.733V285.64H236.7V285.74H236.667V285.84H236.633V285.907H236.6V286.007H236.567V286.073H236.533V286.173H236.5V286.273H236.467V286.34H236.433V286.44H236.4V286.507H236.367V286.607H236.333V286.707H236.3V286.773H236.267V286.873H236.233V286.94H236.2V287.04H236.167V287.14H236.133V287.207H236.1V287.307H236.067V287.373H236.033V287.473H236V287.54H235.967V287.64H235.933V287.74H235.9V287.807H235.867V287.907H235.833V287.973H235.8V288.073H235.767V288.173H235.733V288.24H235.7V288.34H235.667V288.407H235.633V288.507H235.6V288.607H235.567V288.673H235.533V288.773H235.5V288.84H235.467V288.94H235.433V289.04H235.4V289.107H235.367V289.207H235.333V289.273H235.3V289.373H235.267V289.473H235.233V289.54H235.2V289.64H235.167V289.707H235.133V289.807H235.1V289.873H235.067V289.973H235.033V290.073H235V290.14H234.967V290.24H234.933V290.307H234.9V290.407H234.867V290.507H234.833V290.573H234.8V290.673H234.767V290.74H234.733V290.84H234.7V290.94H234.667V291.007H234.633V291.107H234.6V291.173H234.567V291.273H234.533V291.373H234.5V291.44H234.467V291.54H234.433V291.607H234.4V291.707H234.367V291.773H234.333V291.873H234.3V291.973H234.267V292.04H234.233V292.14H234.2V292.207H234.167V292.307H234.133V292.407H234.1V292.473H234.067V292.573H234.033V292.64H234V292.74H233.967V292.84H233.933V292.907H233.9V293.007H233.867V293.073H233.833V293.173H233.8V293.273H233.767V293.34H233.733V293.44H233.7V293.507H233.667V293.607H233.633V293.707H233.6V293.773H233.567V293.873H233.533V293.94H233.5V294.04H233.467V294.107H233.433V294.207H233.4V294.307H233.367V294.373H233.333V294.473H233.3V294.54H233.267V294.64H233.233V294.74H233.2V294.807H233.167V294.907H233.133V294.973H233.1V295.073H233.067V295.173H233.033V295.24H233V295.34H232.967V295.407H232.933V295.507H232.9V295.607H232.867V295.673H232.833V295.773H232.8V295.84H232.767V295.94H232.733V296.007H232.7V296.107H232.667V296.207H232.633V296.273H232.6V296.373H232.567V296.44H232.533V296.54H232.5V296.64H232.467V296.707H232.433V296.807H232.4V296.873H232.367V296.973H232.333V297.073H232.3V297.14H232.267V297.24H232.233V297.307H232.2V297.407H232.167V297.507H232.133V297.573H232.1V297.673H232.067V297.74H232.033V297.84H232V297.94H231.967V298.007H231.933V298.107H231.9V298.173H231.867V298.273H231.833V298.34H231.8V298.44H231.767V298.54H231.733V298.607H231.7V298.707H231.667V298.773H231.633V298.873H231.6V298.973H231.567V299.04H231.533V299.14H231.5V299.207H231.467V299.307H231.433V299.407H231.4V299.473H231.367V299.573H231.333V299.64H231.3V299.74H231.267V299.84H231.233V299.907H231.2V300.007H231.167V300.073H231.133V300.173H231.1V300.24H231.067V300.34H231.033V300.44H231V300.507H230.967V300.607H230.933V300.673H230.9V300.773H230.867V300.873H230.833V300.94H230.8V301.04H230.767V301.107H230.733V301.207H230.7V301.307H230.667V301.373H230.633V301.473H230.6V301.54H230.567V301.64H230.533V301.74H230.5V301.807H230.467V301.907H230.433V301.973H230.4V302.073H230.367V302.173H230.333V302.24H230.3V302.34H230.267V302.407H230.233V302.507H230.2V302.573H230.167V302.673H230.133V302.773H230.1V302.84H230.067V302.94H230.033V303.007H230V303.107H229.967V303.207H229.933V303.273H229.9V303.373H229.867V303.44H229.833V303.54H229.8V303.64H229.767V303.707H229.733V303.807H229.7V303.873H229.667V303.973H229.633V304.073H229.6V304.14H229.567V304.24H229.533V304.307H229.5V304.407H229.467V304.473H229.433V304.573H229.4V304.673H229.367V304.74H229.333V304.84H229.3V304.907H229.267V305.007H229.233V305.107H229.2V305.173H229.167V305.273H229.133V305.34H229.1V305.44H229.067V305.54H229.033V305.607H229V305.707H228.967V305.773H228.933V305.873H228.9V305.973H228.867V306.04H228.833V306.14H228.8V306.207H228.767V306.307H228.733V306.407H228.7V306.473H228.667V306.573H228.633V306.64H228.6V306.74H228.567V306.807H228.533V306.907H228.5V307.007H228.467V307.073H228.433V307.173H228.4V307.24H228.367V307.34H228.333V307.44H228.3V307.507H228.267V307.607H228.233V307.673H228.2V307.773H228.167V307.873H228.133V307.94H228.1V308.04H228.067V308.107H228.033V308.207H228V308.307H227.967V308.373H227.933V308.473H227.9V308.54H227.867V308.64H227.833V308.707H227.8V308.807H227.767V308.907H227.733V308.973H227.7V309.073H227.667V309.14H227.633V309.24H227.6V309.34H227.567V309.407H227.533V309.507H227.5V309.573H227.467V309.673H227.433V309.773H227.4V309.84H227.367V309.94H227.333V310.007H227.3V310.107H227.267V310.207H227.233V310.273H227.2V310.373H227.167V310.44H227.133V310.54H227.1V310.64H227.067V310.707H227.033V310.807H227V310.873H226.967V310.973H226.933V311.04H226.9V311.14H226.867V311.24H226.833V311.307H226.8V311.407H226.767V311.473H226.733V311.573H226.7V311.673H226.667V311.74H226.633V311.84H226.6V311.907H226.567V312.007H226.533V312.107H226.5V312.173H226.467V312.273H226.433V312.34H226.4V312.44H226.367V312.54H226.333V312.607H226.3V312.707H226.267V312.773H226.233V312.873H226.2V312.94H226.167V313.04H226.133V313.14H226.1V313.207H226.067V313.307H226.033V313.373H226V313.473H225.967V313.573H225.933V313.64H225.9V313.74H225.867V313.807H225.833V313.907H225.8V314.007H225.767V314.073H225.733V314.173H225.7V314.24H225.667V314.34H225.633V314.44H225.6V314.507H225.567V314.607H225.533V314.673H225.5V314.773H225.467V314.873H225.433V314.94H225.4V315.04H225.367V315.107H225.333V315.207H225.3V315.273H225.267V315.373H225.233V315.473H225.2V315.54H225.167V315.64H225.133V315.707H225.1V315.807H225.067V315.907H225.033V315.973H225V316.073H224.967V316.14H224.933V316.24H224.9V316.34H224.867V316.407H224.833V316.507H224.8V316.573H224.767V316.673H224.733V316.773H224.7V316.84H224.667V316.94H224.633V317.007H224.6V317.107H224.567V317.207H224.533V317.273H224.5V317.373H224.467V317.44H224.433V317.54H224.4V317.607H224.367V317.707H224.333V317.807H224.3V317.873H224.267V317.973H224.233V318.04H224.2V318.14H224.167V318.24H224.133V318.307H224.1V318.407H224.067V318.473H224.033V318.573H224V318.673H223.967V318.74H223.933V318.84H223.9V318.907H223.867V319.007H223.833V319.107H223.8V319.173H223.767V319.273H223.733V319.34H223.7V319.44H223.667V319.507H223.633V319.607H223.6V319.707H223.567V319.773H223.533V319.873H223.5V319.94H223.467V320.04H223.433V320.14H223.4V320.207H223.367V320.307H223.333V320.373H223.3V320.473H223.267V320.573H223.233V320.64H223.2V320.74H223.167V320.807H223.133V320.907H223.1V321.007H223.067V321.073H223.033V321.173H223V321.24H222.967V321.34H222.933V321.407H222.9V321.507H222.867V321.607H222.833V321.673H222.8V321.773H222.767V321.84H222.733V321.907H222.7V322.007H222.667V322.073H222.633V322.173H222.6V322.24H222.567V322.307H222.533V322.407H222.5V322.473H222.467V322.573H222.433V322.64H222.4V322.707H222.367V322.807H222.333V322.873H222.3V322.973H222.267V323.04H222.233V323.107H222.2V323.207H222.167V323.273H222.133V323.373H222.1V323.44H222.067V323.507H222.033V323.573H222V323.64H221.967V323.74H221.933V323.807H221.9V323.873H221.867V323.94H221.833V324.007H221.8V324.107H221.767V324.173H221.733V324.24H221.7V324.307H221.667V324.373H221.633V324.473H221.6V324.54H221.567V324.607H221.533V324.673H221.5V324.74H221.467V324.84H221.433V324.907H221.4V324.973H221.367V325.04H221.333V325.14H221.3V325.207H221.267V325.273H221.233V325.34H221.2V325.407H221.167V325.507H221.133V325.573H221.1V325.64H221.067V325.707H221.033V325.773H221V325.84H220.967V325.907H220.933V325.973H220.9V326.04H220.867V326.107H220.833V326.173H220.8V326.24H220.767V326.307H220.733V326.373H220.7V326.44H220.667V326.507H220.633V326.573H220.6V326.64H220.567V326.707H220.533V326.773H220.5V326.84H220.467V326.907H220.433V326.973H220.4V327.04H220.367V327.107H220.333V327.173H220.3V327.24H220.267V327.307H220.233V327.373H220.2V327.44H220.167V327.507H220.133V327.573H220.1V327.64H220.067V327.707H220.033V327.773H220V327.84H219.967V327.873H219.933V327.94H219.9V328.007H219.867V328.073H219.833V328.14H219.8V328.207H219.767V328.24H219.733V328.307H219.7V328.373H219.667V328.44H219.633V328.507H219.6V328.54H219.567V328.607H219.533V328.673H219.5V328.74H219.467V328.807H219.433V328.873H219.4V328.907H219.367V328.973H219.333V329.04H219.3V329.107H219.267V329.173H219.233V329.207H219.2V329.273H219.167V329.34H219.133V329.407H219.1V329.473H219.067V329.54H219.033V329.573H219V329.64H218.967V329.707H218.933V329.773H218.9V329.84H218.867V329.873H218.833V329.94H218.8V330.007H218.767V330.073H218.733V330.107H218.7V330.173H218.667V330.24H218.633V330.273H218.6V330.34H218.567V330.407H218.533V330.44H218.5V330.507H218.467V330.573H218.433V330.607H218.4V330.673H218.367V330.74H218.333V330.773H218.3V330.84H218.267V330.907H218.233V330.94H218.2V331.007H218.167V331.073H218.133V331.107H218.1V331.173H218.067V331.24H218.033V331.273H218V331.34H217.967V331.407H217.933V331.44H217.9V331.507H217.867V331.573H217.833V331.607H217.8V331.673H217.767V331.74H217.733V331.773H217.7V331.84H217.667V331.907H217.633V331.94H217.6V332.007H217.567V332.04H217.533V332.107H217.5V332.173H217.467V332.207H217.433V332.273H217.4V332.307H217.367V332.373H217.333V332.407H217.3V332.473H217.267V332.507H217.233V332.573H217.2V332.607H217.167V332.673H217.133V332.707H217.1V332.773H217.067V332.807H217.033V332.873H217V332.94H216.967V332.973H216.933V333.04H216.9V333.073H216.867V333.14H216.833V333.173H216.8V333.24H216.767V333.273H216.733V333.34H216.7V333.373H216.667V333.44H216.633V333.473H216.6V333.54H216.567V333.573H216.533V333.64H216.5V333.707H216.467V333.74H216.433V333.807H216.4V333.84H216.367V333.907H216.333V333.94H216.3V334.007H216.267V334.04H216.233V334.107H216.2V334.14H216.167V334.173H216.133V334.24H216.1V334.273H216.067V334.34H216.033V334.373H216V334.44H215.967V334.473H215.933V334.507H215.9V334.573H215.867V334.607H215.833V334.673H215.8V334.707H215.767V334.74H215.733V334.807H215.7V334.84H215.667V334.907H215.633V334.94H215.6V335.007H215.567V335.04H215.533V335.073H215.5V335.14H215.467V335.173H215.433V335.24H215.4V335.273H215.367V335.307H215.333V335.373H215.3V335.407H215.267V335.473H215.233V335.507H215.2V335.54H215.167V335.607H215.133V335.64H215.1V335.707H215.067V335.74H215.033V335.807H215V335.84H214.967V335.873H214.933V335.94H214.9V335.973H214.867V336.04H214.833V336.073H214.8V336.107H214.767V336.14H214.733V336.207H214.7V336.24H214.667V336.273H214.633V336.34H214.6V336.373H214.567V336.407H214.533V336.473H214.5V336.507H214.467V336.54H214.433V336.607H214.4V336.64H214.367V336.673H214.333V336.707H214.3V336.773H214.267V336.807H214.233V336.84H214.2V336.907H214.167V336.94H214.133V336.973H214.1V337.04H214.067V337.073H214.033V337.107H214V337.173H213.967V337.207H213.933V337.24H213.9V337.273H213.867V337.34H213.833V337.373H213.8V337.407H213.767V337.473H213.733V337.507H213.7V337.54H213.667V337.607H213.633V337.64H213.6V337.673H213.567V337.74H213.533V337.773H213.5V337.807H213.467V337.84H213.433V337.907H213.4V337.94H213.367V337.973H213.333V338.007H213.3V338.073H213.267V338.107H213.233V338.14H213.2V338.173H213.167V338.207H213.133V338.273H213.1V338.307H213.067V338.34H213.033V338.373H213V338.44H212.967V338.473H212.933V338.507H212.9V338.54H212.867V338.573H212.833V338.64H212.8V338.673H212.767V338.707H212.733V338.74H212.7V338.773H212.667V338.84H212.633V338.873H212.6V338.907H212.567V338.94H212.533V338.973H212.5V339.04H212.467V339.073H212.433V339.107H212.4V339.14H212.367V339.173H212.333V339.24H212.3V339.273H212.267V339.307H212.233V339.34H212.2V339.407H212.167V339.44H212.133V339.473H212.1V339.507H212.067V339.54H212.033V339.607H212V339.64H211.967V339.673H211.933V339.707H211.9V339.74H211.867V339.807H211.833V339.84H211.8V339.873H211.767V339.907H211.733V339.94H211.7V339.973H211.667V340.007H211.633V340.04H211.6V340.107H211.567V340.14H211.533V340.173H211.5V340.207H211.467V340.24H211.433V340.273H211.4V340.307H211.367V340.34H211.333V340.407H211.3V340.44H211.267V340.473H211.233V340.507H211.2V340.54H211.167V340.573H211.133V340.607H211.1V340.64H211.067V340.707H211.033V340.74H211V340.773H210.967V340.807H210.933V340.84H210.9V340.873H210.867V340.907H210.833V340.94H210.8V340.973H210.767V341.04H210.733V341.073H210.7V341.107H210.667V341.14H210.633V341.173H210.6V341.207H210.567V341.24H210.533V341.273H210.5V341.34H210.467V341.373H210.433V341.407H210.4V341.44H210.367V341.473H210.333V341.507H210.3V341.54H210.267V341.573H210.233V341.607H210.2V341.64H210.167V341.707H210.133V341.74H210.1V341.773H210.067V341.807H210.033V341.84H210V341.873H209.967V341.907H209.933V341.94H209.9V341.973H209.867V342.007H209.833V342.04H209.8V342.073H209.767V342.107H209.733V342.14H209.7V342.173H209.667V342.207H209.633V342.24H209.6V342.273H209.567V342.307H209.533V342.34H209.5V342.373H209.467V342.407H209.433V342.44H209.4V342.473H209.367V342.507H209.333V342.573H209.3V342.607H209.267V342.64H209.233V342.673H209.2V342.707H209.167V342.74H209.133V342.773H209.1V342.807H209.067V342.84H209.033V342.873H209V342.907H208.967V342.94H208.933V342.973H208.9V343.007H208.867V343.04H208.833V343.073H208.8V343.107H208.767V343.14H208.733V343.173H208.7V343.207H208.667V343.24H208.633V343.273H208.6V343.307H208.567V343.34H208.533V343.373H208.5V343.407H208.467V343.44H208.433V343.473H208.4V343.507H208.367V343.54H208.333V343.573H208.3V343.607H208.267V343.64H208.233V343.673H208.2V343.707H208.167V343.74H208.133V343.773H208.1V343.807H208.067V343.84H208.033V343.873H208V343.907H207.967V343.94H207.933V343.973H207.9V344.007H207.867V344.04H207.833V344.073H207.8V344.107H207.733V344.14H207.7V344.173H207.667V344.207H207.633V344.24H207.6V344.273H207.567V344.307H207.533V344.34H207.5V344.373H207.467V344.407H207.433V344.44H207.4V344.473H207.367V344.507H207.333V344.54H207.3V344.573H207.267V344.607H207.233V344.64H207.2V344.673H207.167V344.707H207.133V344.74H207.1V344.773H207.067V344.807H207.033V344.84H207V344.873H206.967V344.907H206.933V344.94H206.9V344.973H206.833V345.007H206.8V345.04H206.767V345.073H206.733V345.107H206.7V345.14H206.667V345.173H206.633V345.207H206.6V345.24H206.567V345.273H206.5V345.307H206.467V345.34H206.433V345.373H206.4V345.407H206.367V345.44H206.333V345.473H206.3V345.507H206.267V345.54H206.233V345.573H206.167V345.607H206.133V345.64H206.1V345.673H206.067V345.707H206.033V345.74H206V345.773H205.967V345.807H205.933V345.84H205.867V345.873H205.833V345.907H205.8V345.94H205.767V345.973H205.733V346.007H205.7V346.04H205.667V346.073H205.633V346.107H205.6V346.14H205.533V346.173H205.5V346.207H205.467V346.24H205.433V346.273H205.4V346.307H205.367V346.34H205.333V346.373H205.3V346.407H205.267V346.44H205.2V346.473H205.167V346.507H205.133V346.54H205.1V346.573H205.067V346.607H205.033V346.64H204.967V346.673H204.933V346.707H204.9V346.74H204.867V346.773H204.833V346.807H204.767V346.84H204.733V346.873H204.7V346.907H204.667V346.94H204.633V346.973H204.567V347.007H204.533V347.04H204.5V347.073H204.467V347.107H204.433V347.14H204.367V347.173H204.333V347.207H204.3V347.24H204.267V347.273H204.233V347.307H204.167V347.34H204.133V347.373H204.1V347.407H204.067V347.44H204.033V347.473H203.967V347.507H203.933V347.54H203.9V347.573H203.867V347.607H203.833V347.64H203.767V347.673H203.733V347.707H203.7V347.74H203.667V347.773H203.633V347.807H203.567V347.84H203.533V347.873H203.5V347.907H203.467V347.94H203.433V347.973H203.367V348.007H203.333V348.04H203.3V348.073H203.267V348.107H203.2V348.14H203.167V348.173H203.133V348.207H203.067V348.24H203.033V348.273H203V348.307H202.967V348.34H202.9V348.373H202.867V348.407H202.833V348.44H202.767V348.473H202.733V348.507H202.7V348.54H202.667V348.573H202.6V348.607H202.567V348.64H202.533V348.673H202.467V348.707H202.433V348.74H202.4V348.773H202.333V348.807H202.3V348.84H202.267V348.873H202.233V348.907H202.167V348.94H202.133V348.973H202.1V349.007H202.033V349.04H202V349.073H201.967V349.107H201.9V349.14H201.867V349.173H201.833V349.207H201.8V349.24H201.733V349.273H201.7V349.307H201.667V349.34H201.6V349.373H201.567V349.407H201.533V349.44H201.467V349.473H201.433V349.507H201.4V349.54H201.367V349.573H201.3V349.607H201.267V349.64H201.2V349.673H201.167V349.707H201.133V349.74H201.067V349.773H201.033V349.807H200.967V349.84H200.933V349.873H200.9V349.907H200.833V349.94H200.8V349.973H200.733V350.007H200.7V350.04H200.667V350.073H200.6V350.107H200.567V350.14H200.5V350.173H200.467V350.207H200.4V350.24H200.367V350.273H200.333V350.307H200.267V350.34H200.233V350.373H200.167V350.407H200.133V350.44H200.1V350.473H200.033V350.507H200V350.54H199.933V350.573H199.9V350.607H199.867V350.64H199.8V350.673H199.767V350.707H199.7V350.74H199.667V350.773H199.633V350.807H199.567V350.84H199.533V350.873H199.467V350.907H199.433V350.94H199.4V350.973H199.333V351.007H199.267V351.04H199.233V351.073H199.167V351.107H199.133V351.14H199.067V351.173H199.033V351.207H198.967V351.24H198.933V351.273H198.867V351.307H198.833V351.34H198.767V351.373H198.733V351.407H198.667V351.44H198.633V351.473H198.567V351.507H198.533V351.54H198.467V351.573H198.433V351.607H198.367V351.64H198.333V351.673H198.267V351.707H198.233V351.74H198.167V351.773H198.133V351.807H198.067V351.84H198.033V351.873H197.967V351.907H197.933V351.94H197.867V351.973H197.8V352.007H197.767V352.04H197.7V352.073H197.667V352.107H197.6V352.14H197.567V352.173H197.5V352.207H197.467V352.24H197.4V352.273H197.367V352.307H197.3V352.34H197.233V352.373H197.2V352.407H197.133V352.44H197.067V352.473H197.033V352.507H196.967V352.54H196.9V352.573H196.867V352.607H196.8V352.64H196.733V352.673H196.7V352.707H196.633V352.74H196.6V352.773H196.533V352.807H196.467V352.84H196.433V352.873H196.367V352.907H196.3V352.94H196.267V352.973H196.2V353.007H196.133V353.04H196.1V353.073H196.033V353.107H195.967V353.14H195.933V353.173H195.867V353.207H195.8V353.24H195.767V353.273H195.7V353.307H195.667V353.34H195.6V353.373H195.533V353.407H195.5V353.44H195.433V353.473H195.367V353.507H195.3V353.54H195.267V353.573H195.2V353.607H195.133V353.64H195.067V353.673H195V353.707H194.967V353.74H194.9V353.773H194.833V353.807H194.767V353.84H194.7V353.873H194.667V353.907H194.6V353.94H194.533V353.973H194.467V354.007H194.433V354.04H194.367V354.073H194.3V354.107H194.233V354.14H194.167V354.173H194.133V354.207H194.067V354.24H194V354.273H193.933V354.307H193.867V354.34H193.833V354.373H193.767V354.407H193.7V354.44H193.633V354.473H193.567V354.507H193.533V354.54H193.467V354.573H193.4V354.607H193.333V354.64H193.267V354.673H193.2V354.707H193.133V354.74H193.067V354.773H193V354.807H192.933V354.84H192.9V354.873H192.833V354.907H192.767V354.94H192.7V354.973H192.633V355.007H192.567V355.04H192.5V355.073H192.433V355.107H192.367V355.14H192.3V355.173H192.233V355.207H192.167V355.24H192.1V355.273H192.033V355.307H191.967V355.34H191.9V355.373H191.833V355.407H191.767V355.44H191.7V355.473H191.633V355.507H191.567V355.54H191.5V355.573H191.433V355.607H191.367V355.64H191.3V355.673H191.267V355.707H191.167V355.74H191.1V355.773H191.033V355.807H190.967V355.84H190.9V355.873H190.833V355.907H190.767V355.94H190.667V355.973H190.6V356.007H190.533V356.04H190.467V356.073H190.4V356.107H190.333V356.14H190.233V356.173H190.167V356.207H190.1V356.24H190.033V356.273H189.967V356.307H189.9V356.34H189.833V356.373H189.733V356.407H189.667V356.44H189.6V356.473H189.533V356.507H189.467V356.54H189.4V356.573H189.3V356.607H189.233V356.64H189.167V356.673H189.1V356.707H189.033V356.74H188.933V356.773H188.867V356.807H188.8V356.84H188.7V356.873H188.633V356.907H188.567V356.94H188.467V356.973H188.4V357.007H188.3V357.04H188.233V357.073H188.167V357.107H188.067V357.14H188V357.173H187.9V357.207H187.833V357.24H187.767V357.273H187.667V357.307H187.6V357.34H187.533V357.373H187.433V357.407H187.367V357.44H187.267V357.473H187.2V357.507H187.133V357.54H187.033V357.573H186.967V357.607H186.867V357.64H186.8V357.673H186.7V357.707H186.633V357.74H186.533V357.773H186.433V357.807H186.367V357.84H186.267V357.873H186.167V357.907H186.1V357.94H186V357.973H185.9V358.007H185.833V358.04H185.733V358.073H185.633V358.107H185.567V358.14H185.467V358.173H185.367V358.207H185.3V358.24H185.2V358.273H185.133V358.307H185.033V358.34H184.933V358.373H184.867V358.407H184.767V358.44H184.667V358.473H184.6V358.507H184.5V358.54H184.4V358.573H184.3V358.607H184.2V358.64H184.1V358.673H184V358.707H183.9V358.74H183.8V358.773H183.7V358.807H183.6V358.84H183.5V358.873H183.4V358.907H183.3V358.94H183.2V358.973H183.1V359.007H183V359.04H182.9V359.073H182.8V359.107H182.7V359.14H182.6V359.173H182.5V359.207H182.4V359.24H182.3V359.273H182.167V359.307H182.067V359.34H181.933V359.373H181.833V359.407H181.733V359.44H181.6V359.473H181.5V359.507H181.367V359.54H181.267V359.573H181.167V359.607H181.033V359.64H180.933V359.673H180.8V359.707H180.7V359.74H180.6V359.773H180.467V359.807H180.367V359.84H180.233V359.873H180.133V359.907H180V359.94H179.9V359.973H179.767V360.007H179.633V360.04H179.5V360.073H179.367V360.107H179.233V360.14H179.1V360.173H178.967V360.207H178.833V360.24H178.7V360.273H178.567V360.307H178.433V360.34H178.3V360.373H178.167V360.407H178.033V360.44H177.9V360.473H177.767V360.507H177.633V360.54H177.5V360.573H177.333V360.607H177.167V360.64H177V360.673H176.867V360.707H176.7V360.74H176.533V360.773H176.4V360.807H176.233V360.84H176.067V360.873H175.933V360.907H175.767V360.94H175.6V360.973H175.467V361.007H175.3V361.04H175.1V361.073H174.9V361.107H174.733V361.14H174.533V361.173H174.333V361.207H174.133V361.24H173.967V361.273H173.767V361.307H173.567V361.34H173.367V361.373H173.2V361.407H173V361.44H172.767V361.473H172.533V361.507H172.267V361.54H172.033V361.573H171.8V361.607H171.533V361.64H171.3V361.673H171.033V361.707H170.8V361.74H170.567V361.773H170.233V361.807H169.9V361.84H169.533V361.873H169.2V361.907H168.833V361.94H168.5V361.973H168.167V362.007H167.667V362.04H167.1V362.073H166.5V362.107H165.933V362.14H165.1V362.173H163.8V362.207" fill="url(#paint0_linear_4_16)"/>
</g>
<path d="M358.58 306.553H270.303L276.19 321.47C285.88 346.033 309.603 362.177 336.01 362.177H380L358.58 306.553Z" fill="url(#paint1_linear_4_16)"/>
<defs>
<linearGradient id="paint0_linear_4_16" x1="45.4067" y1="95.4368" x2="372.849" y2="410.6" gradientUnits="userSpaceOnUse">
<stop stop-color="#7D42A5"/>
<stop offset="1" stop-color="#3366B9"/>
</linearGradient>
<linearGradient id="paint1_linear_4_16" x1="232.601" y1="295.992" x2="298.406" y2="425.026" gradientUnits="userSpaceOnUse">
<stop stop-color="#7D42A5"/>
<stop offset="1" stop-color="#3366B9"/>
</linearGradient>
</defs>
</svg>
